<svg width="400" viewBox="0 0 353 280" fill="none" xmlns="http://www.w3.org/2000/svg">
<g clip-path="url(#clip0)">
<path opacity="0.1" d="M207.022 47.3186C184.686 46.5439 163.41 39.3507 143.096 31.4792C122.783 23.6077 102.662 14.8856 80.8612 10.7157C66.8391 8.03335 50.8015 7.65458 39.5058 15.1542C28.6311 22.3853 25.1178 34.833 23.23 46.3958C21.8082 55.0937 20.973 64.2462 24.8693 72.3897C27.5716 78.0437 32.3722 82.7955 35.6888 88.2291C47.2399 107.071 39.0778 130.307 26.5604 148.705C20.6934 157.337 13.8774 165.577 9.34941 174.757C4.82147 183.937 2.72316 194.47 6.6851 203.843C10.616 213.14 19.979 220.11 30.1186 225.017C50.7186 234.985 74.9838 237.836 98.6624 239.451C151.062 243.029 203.737 241.479 256.274 239.93C275.718 239.355 295.245 238.773 314.371 235.774C324.994 234.107 335.958 231.466 343.672 225.082C353.459 216.98 355.885 203.258 349.328 193.1C338.322 176.059 307.914 171.827 300.211 153.536C295.98 143.471 300.328 132.259 306.478 122.921C319.676 102.894 341.794 85.323 342.961 62.4315C343.761 46.7057 333.125 30.9627 316.683 23.5216C299.452 15.6948 275.549 16.6865 262.842 29.5957C249.748 42.8973 226.742 48.0004 207.022 47.3186Z" fill="#6C63FF"/>
<path d="M150.281 237.764L32.1547 237.189L20.4172 209.721L61.9211 206.715L54.6874 176.599L136.777 165.984L58.1696 138.719L65.1134 137.073L191.513 157.647L184.552 204.646L174.602 230.474L150.281 237.764Z" fill="#6C63FF"/>
<path d="M33.9666 225.684C33.9666 225.684 41.214 224.528 45.5625 229.637C45.5625 229.637 42.3736 232.144 35.5127 228.673L33.9666 225.684Z" fill="#6C63FF"/>
<path d="M33.2072 225.571C33.2072 225.571 28.5826 231.249 30.8604 237.571C30.8604 237.571 34.6291 236.066 35.0398 228.401L33.2072 225.571Z" fill="#6C63FF"/>
<path d="M29.052 216.236C29.052 216.236 31.951 210.93 43.5469 218.357C43.5469 218.357 42.0008 221.924 36.8793 221.635C31.7577 221.346 30.4049 219.032 29.052 216.236Z" fill="#6C63FF"/>
<path d="M28.3032 215.854C28.3032 215.854 22.2878 215.165 21.7046 228.904C21.7046 228.904 25.5181 229.693 28.2273 225.347C30.9365 221.002 29.8252 218.564 28.3032 215.854Z" fill="#6C63FF"/>
<path d="M24.8 204.894C24.8 204.894 28.1822 195.541 40.4546 202.194C40.4546 202.194 37.6522 210.775 26.0563 208.075L24.8 204.894Z" fill="#6C63FF"/>
<path d="M21.0315 190.913C21.0315 190.913 27.4093 181.465 38.7153 190.225C38.7153 190.225 34.7534 199.095 21.9978 194.274L21.0315 190.913Z" fill="#6C63FF"/>
<path d="M19.6785 177.608C19.6785 177.608 27.1192 168.928 38.3148 177.608C38.3148 177.608 31.2606 185.225 19.6785 179.826V177.608Z" fill="#6C63FF"/>
<path d="M18.519 164.685C18.519 164.685 26.0564 155.623 36.7827 164.203C36.7827 164.203 28.279 172.206 18.519 166.807V164.685Z" fill="#6C63FF"/>
<path d="M19.1953 153.212C19.1953 153.212 27.133 141.546 37.169 149.452C37.169 149.452 28.6653 159.479 19.1953 155.43V153.212Z" fill="#6C63FF"/>
<path d="M21.0315 139.811C21.0315 139.811 29.4386 128.241 39.1985 137.111C39.1985 137.111 29.2453 147.138 21.0315 141.932V139.811Z" fill="#6C63FF"/>
<path d="M23.8338 127.831C23.8338 127.831 33.787 116.957 42.4701 121.289C42.4701 121.289 32.0993 132.838 23.3989 130.717L23.8338 127.831Z" fill="#6C63FF"/>
<path d="M27.3125 116.475C27.3125 116.475 38.798 103.156 45.4795 107.605C45.4795 107.605 37.0172 117.935 26.498 118.968L27.3125 116.475Z" fill="#6C63FF"/>
<path d="M32.334 103.304C32.334 103.304 42.3873 92.43 49.7314 95.1296C49.7314 95.1296 41.1311 106.41 30.9846 106.699L32.334 103.304Z" fill="#6C63FF"/>
<path d="M36.8792 90.9838C36.8792 90.9838 47.9919 80.5711 52.8236 82.403C52.8236 82.403 44.8031 93.9727 36.396 93.2978L36.8792 90.9838Z" fill="#6C63FF"/>
<path d="M41.3245 79.607C41.3245 79.607 50.8911 67.1661 56.1127 68.1303C56.1127 68.1303 50.3113 79.2213 41.3245 80.8707V79.607Z" fill="#6C63FF"/>
<path d="M46.1491 64.2668C46.1491 64.2668 54.6045 54.7322 59.1738 54.7528C59.1738 54.7528 52.4993 67.4932 45.8005 67.3762L46.1491 64.2668Z" fill="#6C63FF"/>
<path d="M49.0066 54.0538L57.1755 34.1925C57.1755 34.1925 57.5828 52.1462 47.9678 57.7382L49.0066 54.0538Z" fill="#6C63FF"/>
<path d="M52.3233 32.1506C52.3233 32.1506 53.6761 15.564 52.8064 14.2142C52.8064 14.2142 58.6458 28.0048 52.2681 39.4781L52.3233 32.1506Z" fill="#6C63FF"/>
<path d="M24.4826 204.673C24.4826 204.673 16.0135 199.436 10.5295 212.249C10.5295 212.249 18.0669 217.241 25.48 207.941L24.4826 204.673Z" fill="#6C63FF"/>
<path d="M20.7588 190.38C20.7588 190.38 10.3707 185.652 5.33203 199.03C5.33203 199.03 13.356 204.539 21.7044 193.761L20.7588 190.38Z" fill="#6C63FF"/>
<path d="M19.1954 178.404C19.1954 178.404 11.7547 169.723 0.559082 178.404C0.559082 178.404 7.61328 186.02 19.1954 180.621V178.404Z" fill="#6C63FF"/>
<path d="M18.2636 164.685C18.2636 164.685 10.7263 155.623 0 164.203C0 164.203 8.50369 172.206 18.2636 166.807V164.685Z" fill="#6C63FF"/>
<path d="M19.1954 153.543C19.1954 153.543 13.9082 140.475 2.41577 146.095C2.41577 146.095 8.62788 157.682 18.726 155.712L19.1954 153.543Z" fill="#6C63FF"/>
<path d="M21.6974 139.745C21.6974 139.745 16.4412 126.45 4.78662 132.614C4.78662 132.614 11.9237 144.8 21.1797 141.797L21.6974 139.745Z" fill="#6C63FF"/>
<path d="M24.9554 127.897C24.9554 127.897 22.8847 113.321 13.2214 112.016C13.2214 112.016 15.2714 127.387 23.6543 130.524L24.9554 127.897Z" fill="#6C63FF"/>
<path d="M27.5575 116.503C27.5575 116.503 26.75 98.9414 18.7605 98.3285C18.7605 98.3285 19.0297 111.658 26.6568 118.989L27.5575 116.503Z" fill="#6C63FF"/>
<path d="M33.1622 102.812C33.1622 102.812 30.7809 88.2085 23.1538 86.4248C23.1538 86.4248 24.0994 100.567 32.4064 106.396L33.1622 102.812Z" fill="#6C63FF"/>
<path d="M37.7835 91.1043C37.7835 91.1043 37.7041 75.8916 33.045 73.6568C33.045 73.6568 30.1564 87.4303 36.4341 93.0464L37.7835 91.1043Z" fill="#6C63FF"/>
<path d="M41.6799 79.4348C41.6799 79.4348 41.0276 63.771 36.2029 61.5638C36.2029 61.5638 34.5532 73.9599 40.9586 80.4609L41.6799 79.4348Z" fill="#6C63FF"/>
<path d="M46.8222 65.5168C46.8222 65.5168 46.7946 52.7763 43.3504 49.7875C43.3504 49.7875 39.9268 63.7434 45.0242 68.0786L46.8222 65.5168Z" fill="#6C63FF"/>
<path d="M48.6029 53.4271L45.2518 32.2229C45.2518 32.2229 40.6997 49.5981 48.7617 57.2561L48.6029 53.4271Z" fill="#6C63FF"/>
<path d="M49.2551 32.3503C49.2551 32.3503 40.6548 18.0948 40.8308 16.5109C40.8308 16.5109 41.7454 31.4516 52.5648 38.8927L49.2551 32.3503Z" fill="#6C63FF"/>
<path d="M50.2628 28.1391C50.2628 28.1391 42.1457 7.89218 38.4736 6.25314C38.4736 6.25314 50.0696 12.1344 50.9393 27.5606L50.2628 28.1391Z" fill="#6C63FF"/>
<path d="M45.7593 67.4967L45.2036 67.328C52.0542 45.0391 53.7625 30.8284 50.018 27.2645L50.4149 26.8444C54.3872 30.6046 52.7755 44.6603 45.7593 67.4967Z" fill="#444053"/>
<path d="M26.8951 119.684L26.0737 119.392C26.8019 117.35 27.5853 115.277 28.4067 113.235C35.5576 95.4533 41.6454 78.9114 45.5487 66.2123L46.2631 65.868C42.3529 78.5912 36.372 95.7666 29.2143 113.572C28.3964 115.576 27.6164 117.639 26.8951 119.684Z" fill="#444053"/>
<path d="M44.1786 242.364C44.0682 242.244 32.9657 229.768 25.2248 208.471C20.689 196.003 18.1647 182.895 17.7461 169.637C17.2146 153.064 20.7003 134.559 26.6708 117.749L27.3196 118.507C13.9153 156.235 19.2404 188.565 26.305 208.034C33.9631 229.138 44.9413 241.476 45.0483 241.6L44.1786 242.364Z" fill="#444053"/>
<path d="M217.676 215.878C217.676 215.878 209.852 225.406 216.064 239.809L153.598 266.84L147.603 268.093L144.842 256.041L146.689 240.832V232.52L217.676 215.878Z" fill="#D5D6DB"/>
<path d="M20.4172 209.721L106.876 193.995L221.438 212.204L150.282 237.764L20.4172 209.721Z" fill="#6C63FF"/>
<path d="M20.4172 209.721L106.876 193.995L221.438 212.204L150.282 237.764L20.4172 209.721Z" fill="#B2C4EC"/>
<path d="M20.4172 209.718C20.4172 209.718 12.3311 225.003 21.6492 239.12L149.86 266.84C149.86 266.84 141.902 254.664 150.271 237.764L20.4172 209.718Z" fill="#B2C4EC"/>
<path opacity="0.1" d="M20.4172 209.718C20.4172 209.718 12.3311 225.003 21.6492 239.12L149.86 266.84C149.86 266.84 141.902 254.664 150.271 237.764L20.4172 209.718Z" fill="black"/>
<path opacity="0.1" d="M24.2377 215.017C24.2377 215.017 19.6165 226.201 24.2377 233.439V215.017Z" fill="black"/>
<path d="M149.86 266.84L221.438 236.366C221.438 236.366 225.441 237.227 222.853 240.153C220.264 243.08 151.241 269.766 151.241 269.766L21.6492 239.12L149.86 266.84Z" fill="#B2C4EC"/>
<path opacity="0.1" d="M149.86 266.84L221.438 236.366C221.438 236.366 225.441 237.227 222.853 240.153C220.264 243.08 151.241 269.766 151.241 269.766L21.6492 239.12L149.86 266.84Z" fill="black"/>
<path opacity="0.1" d="M143.993 240.842C143.993 240.842 137.091 249.106 143.993 261.502V240.842Z" fill="black"/>
<path opacity="0.1" d="M177.41 240.702L146.45 251.008L146.559 251.335L177.519 241.029L177.41 240.702Z" fill="black"/>
<path opacity="0.1" d="M183.611 239.677L146.44 253.78L146.563 254.102L183.734 239.999L183.611 239.677Z" fill="black"/>
<path opacity="0.1" d="M189.306 239.627L146.648 257.049L146.778 257.367L189.437 239.946L189.306 239.627Z" fill="black"/>
<path opacity="0.1" d="M195.499 238.136L147.146 259.929L147.288 260.243L195.641 238.449L195.499 238.136Z" fill="black"/>
<path opacity="0.1" d="M200.702 238.143L147.528 261.332L147.667 261.648L200.84 238.458L200.702 238.143Z" fill="black"/>
<path opacity="0.1" d="M212.082 236.214L148.33 263.687L148.467 264.003L212.219 236.531L212.082 236.214Z" fill="black"/>
<path opacity="0.3" d="M52.5374 211.401L113.278 198.661L150.282 205.72L100.509 221.732L52.5374 211.401Z" fill="white"/>
<path d="M221.438 212.204C221.438 212.204 224.579 213.467 222.736 215.42C220.893 217.372 150.271 237.764 150.271 237.764L221.438 212.204Z" fill="#B2C4EC"/>
<path d="M251.943 182.76C251.943 182.76 244.122 192.284 250.334 206.691L187.868 233.721L181.873 234.982L179.113 222.93L180.987 207.724V199.401L251.943 182.76Z" fill="#D5D6DB"/>
<path d="M54.6873 176.599L141.143 160.877L255.708 179.086L184.551 204.646L54.6873 176.599Z" fill="#3A3768"/>
<path d="M54.6735 176.599C54.6735 176.599 46.5839 191.884 55.9021 206.002L184.113 233.721C184.113 233.721 176.158 221.535 184.538 204.642L54.6735 176.599Z" fill="#3A3768"/>
<path opacity="0.1" d="M54.6735 176.599C54.6735 176.599 46.5839 191.884 55.9021 206.002L184.113 233.721C184.113 233.721 176.158 221.535 184.538 204.642L143.993 195.886L54.6735 176.599Z" fill="black"/>
<path opacity="0.1" d="M58.5044 181.899C58.5044 181.899 53.8868 193.079 58.5044 200.321V181.899Z" fill="black"/>
<path d="M184.127 233.721L255.708 203.248C255.708 203.248 259.708 204.108 257.12 207.035C254.531 209.962 185.508 236.648 185.508 236.648L55.916 206.002L184.127 233.721Z" fill="#3A3768"/>
<path opacity="0.1" d="M184.127 233.721L255.708 203.248C255.708 203.248 259.708 204.108 257.12 207.035C254.531 209.962 185.508 236.648 185.508 236.648L55.916 206.002L184.127 233.721Z" fill="black"/>
<path opacity="0.1" d="M178.26 207.724C178.26 207.724 171.358 215.988 178.26 228.384V207.724Z" fill="black"/>
<path opacity="0.1" d="M211.679 207.588L180.719 217.894L180.828 218.22L211.789 207.914L211.679 207.588Z" fill="black"/>
<path opacity="0.1" d="M217.885 206.561L180.714 220.664L180.837 220.985L218.008 206.883L217.885 206.561Z" fill="black"/>
<path opacity="0.1" d="M223.575 206.506L180.916 223.928L181.047 224.246L223.706 206.825L223.575 206.506Z" fill="black"/>
<path opacity="0.1" d="M229.772 205.015L181.418 226.809L181.56 227.122L229.914 205.329L229.772 205.015Z" fill="black"/>
<path opacity="0.1" d="M234.97 205.018L181.796 228.208L181.934 228.523L235.108 205.334L234.97 205.018Z" fill="black"/>
<path opacity="0.1" d="M246.353 203.09L182.601 230.563L182.737 230.879L246.49 203.406L246.353 203.09Z" fill="black"/>
<path opacity="0.45" d="M86.8074 178.283L147.548 165.543L184.552 172.602L134.779 188.613L86.8074 178.283Z" fill="white"/>
<path d="M255.708 179.086C255.708 179.086 258.845 180.349 257.006 182.298C255.166 184.247 184.552 204.642 184.552 204.642L255.708 179.086Z" fill="#3A3768"/>
<path d="M255.187 144.872C255.187 144.872 247.363 161.975 253.575 176.379L191.109 195.834L185.128 197.098L182.367 185.046L184.213 169.837V161.514L255.187 144.872Z" fill="#D5D6DB"/>
<path d="M57.9419 138.716L144.401 122.99L258.966 141.198L187.806 166.758L57.9419 138.716Z" fill="#D3BEE5"/>
<path d="M57.9419 138.712C57.9419 138.712 49.842 153.997 59.1602 168.115L187.371 195.834C187.371 195.834 179.413 183.648 187.792 166.758L57.9419 138.712Z" fill="#D3BEE5"/>
<path opacity="0.1" d="M57.9419 138.712C57.9419 138.712 49.842 153.997 59.1602 168.115L187.371 195.834C187.371 195.834 179.413 183.648 187.792 166.758L57.9419 138.712Z" fill="black"/>
<path opacity="0.1" d="M61.7623 144.012C61.7623 144.012 57.1412 155.196 61.7623 162.433V144.012Z" fill="black"/>
<path d="M187.385 195.834L258.962 172.936C258.962 172.936 262.966 173.797 260.377 176.723C257.789 179.65 188.765 198.761 188.765 198.761L59.1738 168.115L187.385 195.834Z" fill="#D3BEE5"/>
<path opacity="0.1" d="M187.385 195.834L258.962 172.936C258.962 172.936 262.966 173.797 260.377 176.723C257.789 179.65 188.765 198.761 188.765 198.761L59.1738 168.115L187.385 195.834Z" fill="black"/>
<path opacity="0.1" d="M181.518 169.837C181.518 169.837 174.615 178.101 181.518 190.497V169.837Z" fill="black"/>
<path opacity="0.1" d="M214.938 169.7L183.978 180.006L184.087 180.332L215.047 170.027L214.938 169.7Z" fill="black"/>
<path opacity="0.1" d="M221.142 168.675L183.97 182.777L184.093 183.099L221.264 168.996L221.142 168.675Z" fill="black"/>
<path opacity="0.1" d="M226.828 168.622L184.17 186.043L184.3 186.362L226.959 168.941L226.828 168.622Z" fill="black"/>
<path opacity="0.1" d="M233.03 167.128L184.676 188.921L184.818 189.235L233.172 167.442L233.03 167.128Z" fill="black"/>
<path opacity="0.1" d="M238.23 167.134L185.056 190.323L185.194 190.639L238.368 167.449L238.23 167.134Z" fill="black"/>
<path opacity="0.1" d="M249.612 165.208L185.859 192.681L185.996 192.997L249.749 165.524L249.612 165.208Z" fill="black"/>
<path opacity="0.3" d="M90.0618 140.396L150.802 127.656L187.806 134.714L138.033 150.726L90.0618 140.396Z" fill="white"/>
<path d="M258.962 141.198C258.962 141.198 262.103 142.462 260.26 144.414C258.417 146.367 187.806 166.758 187.806 166.758L258.962 141.198Z" fill="#D3BEE5"/>
<path d="M107.131 36.6717C107.131 36.6717 94.017 35.8832 95.5493 45.0632C95.5493 45.0632 95.2422 46.685 96.7158 47.4219C96.7158 47.4219 96.74 46.7332 98.0618 46.9708C98.5335 47.0517 99.0133 47.0748 99.4906 47.0397C100.134 46.9957 100.746 46.7444 101.233 46.3235C101.233 46.3235 104.923 44.8015 106.358 38.7825C106.358 38.7825 107.421 37.4706 107.394 37.1331L105.171 38.0766C105.171 38.0766 105.927 39.6709 105.333 40.9966C105.333 40.9966 105.261 38.1352 104.833 38.2006C104.747 38.2006 103.684 38.755 103.684 38.755C103.684 38.755 104.985 41.5338 104.001 43.5516C104.001 43.5516 104.374 40.1289 103.277 38.9547L101.717 39.8637C101.717 39.8637 103.239 42.732 102.207 45.0735C102.207 45.0735 102.472 41.4821 101.389 40.0841L99.9737 41.186C99.9737 41.186 101.406 44.013 100.533 45.955C100.533 45.955 100.419 41.7748 99.67 41.458C99.67 41.458 98.4311 42.5461 98.2447 42.9937C98.2447 42.9937 99.2248 45.0598 98.614 46.1306C98.614 46.1306 98.2447 43.345 97.9237 43.3312C97.9237 43.3312 96.6917 45.1768 96.564 46.4302C96.6237 45.2617 96.9889 44.1292 97.6235 43.1452C96.9134 43.2793 96.2583 43.6181 95.7391 44.1197C95.7391 44.1197 95.929 42.8147 97.9306 42.7011C97.9306 42.7011 98.9487 41.2996 99.2214 41.217C99.2214 41.217 97.2301 41.0482 96.0256 41.582C96.0256 41.582 97.0886 40.3527 99.5838 40.8933L100.964 39.757C100.964 39.757 98.3482 39.4127 97.237 39.7949C97.237 39.7949 98.5173 38.7068 101.34 39.4987L102.862 38.5931C102.862 38.5931 100.629 38.1145 99.3008 38.2867C99.3008 38.2867 100.702 37.5326 103.308 38.3486L104.391 37.8631C104.391 37.8631 102.759 37.5429 102.279 37.4913C101.799 37.4396 101.775 37.3088 101.775 37.3088C102.811 37.139 103.874 37.2581 104.847 37.6531C104.847 37.6531 107.176 36.8164 107.131 36.6717Z" fill="#6C63FF"/>
<path opacity="0.1" d="M291.631 74.4041C291.631 74.4041 278.517 73.6155 280.049 82.7955C280.049 82.7955 279.742 84.4173 281.216 85.1542C281.216 85.1542 281.24 84.4656 282.562 84.7031C283.033 84.7821 283.513 84.8052 283.99 84.772C284.628 84.7251 285.233 84.4739 285.716 84.0558C285.716 84.0558 289.409 82.5338 290.841 76.5148C290.841 76.5148 291.904 75.2029 291.876 74.8655L289.661 75.8089C289.661 75.8089 290.416 77.4032 289.823 78.7289C289.823 78.7289 289.75 75.8675 289.326 75.9329C289.24 75.9329 288.173 76.4873 288.173 76.4873C288.173 76.4873 289.474 79.2661 288.494 81.2839C288.494 81.2839 288.867 77.8612 287.766 76.687L286.206 77.5961C286.206 77.5961 287.728 80.4644 286.696 82.8059C286.696 82.8059 286.962 79.2144 285.878 77.8164L284.467 78.9183C284.467 78.9183 285.895 81.7453 285.022 83.6874C285.022 83.6874 284.908 79.5071 284.159 79.1903C284.159 79.1903 282.924 80.2784 282.734 80.7261C282.734 80.7261 283.714 82.7921 283.107 83.863C283.107 83.863 282.734 81.0773 282.417 81.0635C282.417 81.0635 281.185 82.9092 281.057 84.1625C281.117 82.9935 281.483 81.8607 282.12 80.8776C281.409 81.0119 280.753 81.3506 280.232 81.852C280.232 81.852 280.425 80.547 282.423 80.4334C282.423 80.4334 283.442 79.0319 283.714 78.9459C283.714 78.9459 281.726 78.7806 280.518 79.3143C280.518 79.3143 281.581 78.085 284.077 78.6256L285.457 77.4893C285.457 77.4893 282.838 77.145 281.73 77.5272C281.73 77.5272 283.007 76.4391 285.833 77.2311L287.352 76.3255C287.352 76.3255 285.119 75.8468 283.79 76.019C283.79 76.019 285.191 75.2649 287.797 76.081L288.884 75.5955C288.884 75.5955 287.248 75.2752 286.769 75.2236C286.289 75.1719 286.265 75.0411 286.265 75.0411C287.301 74.8691 288.364 74.9884 289.336 75.3854C289.336 75.3854 291.673 74.5487 291.631 74.4041Z" fill="#6C63FF"/>
<path opacity="0.1" d="M129.219 93.3838C129.219 93.3838 123.504 81.5628 116.229 87.389C116.229 87.389 114.658 87.9123 114.734 89.5548C114.734 89.5548 115.338 89.2415 115.77 90.5086C115.931 90.9566 116.144 91.3842 116.405 91.7827C116.758 92.3229 117.278 92.7338 117.885 92.9534C117.885 92.9534 121.015 95.4257 126.983 93.7385C126.983 93.7385 128.65 94.0243 128.922 93.8246L127.017 92.3543C127.017 92.3543 125.982 93.7902 124.539 93.9176C124.539 93.9176 127.01 92.461 126.744 92.1236C126.689 92.0547 125.709 91.3901 125.709 91.3901C125.709 91.3901 123.911 93.8797 121.668 94.0071C121.668 94.0071 124.843 92.6642 125.333 91.1319L123.78 90.216C123.78 90.216 122.009 92.9431 119.459 93.1841C119.459 93.1841 122.731 91.6656 123.424 90.0403L121.775 89.3517C121.775 89.3517 119.997 91.9755 117.871 92.1649C117.871 92.1649 121.474 90.0266 121.385 89.2174C121.385 89.2174 119.828 88.6733 119.345 88.725C119.345 88.725 118.027 90.581 116.784 90.581C116.784 90.581 119.038 88.8971 118.9 88.6251C118.9 88.6251 116.684 88.453 115.518 88.9695C116.569 88.4482 117.739 88.2108 118.91 88.2808C118.445 87.7277 117.829 87.3221 117.136 87.1135C117.136 87.1135 118.372 86.6452 119.445 88.329C119.445 88.329 121.171 88.5322 121.374 88.7284C121.374 88.7284 120.55 86.9172 119.497 86.1287C119.497 86.1287 121.091 86.4489 121.82 88.8834L123.493 89.5445C123.493 89.5445 122.531 87.0928 121.644 86.3181C121.644 86.3181 123.217 86.9 123.904 89.7614L125.436 90.6429C125.436 90.6429 124.77 88.4633 123.97 87.3924C123.97 87.3924 125.312 88.2464 125.868 90.9115L126.824 91.6208C126.824 91.6208 126.306 90.0403 126.134 89.5996C125.961 89.1588 126.047 89.0693 126.047 89.0693C126.704 89.8868 127.12 90.8704 127.248 91.9101C127.248 91.9101 129.095 93.4871 129.219 93.3838Z" fill="#6C63FF"/>
<path opacity="0.1" d="M261.668 57.7038C261.668 57.7038 255.956 45.8827 248.678 51.7089C248.678 51.7089 247.111 52.2323 247.183 53.8748C247.183 53.8748 247.791 53.5649 248.219 54.8286C248.38 55.2783 248.594 55.7072 248.857 56.1061C249.209 56.6452 249.728 57.0551 250.334 57.2734C250.334 57.2734 253.468 59.7457 259.432 58.0619C259.432 58.0619 261.098 58.3442 261.375 58.1445L259.48 56.6708C259.48 56.6708 258.445 58.1101 257.005 58.2375C257.005 58.2375 259.473 56.7775 259.207 56.4401C259.152 56.3712 258.172 55.7066 258.172 55.7066C258.172 55.7066 256.377 58.1962 254.131 58.3236C254.131 58.3236 257.309 56.9807 257.799 55.4518L256.222 54.5428C256.222 54.5428 254.455 57.2665 251.901 57.5109C251.901 57.5109 255.173 55.989 255.87 54.3637L254.217 53.675C254.217 53.675 252.439 56.3023 250.317 56.4883C250.317 56.4883 253.917 54.3499 253.827 53.5442C253.827 53.5442 252.274 52.9967 251.791 53.0518C251.791 53.0518 250.472 54.9043 249.226 54.9043C249.226 54.9043 251.484 53.2205 251.345 52.9485C251.345 52.9485 249.13 52.7763 247.96 53.2928C249.011 52.7714 250.181 52.534 251.352 52.6042C250.889 52.0508 250.274 51.6449 249.582 51.4369C249.582 51.4369 250.817 50.9686 251.891 52.6524C251.891 52.6524 253.616 52.859 253.82 53.0552C253.82 53.0552 252.995 51.2406 251.939 50.4521C251.939 50.4521 253.534 50.7757 254.262 53.224L255.939 53.8851C255.939 53.8851 254.976 51.43 254.089 50.6552C254.089 50.6552 255.663 51.2371 256.346 54.0986L257.882 54.9801C257.882 54.9801 257.212 52.8039 256.412 51.7295C256.412 51.7295 257.758 52.5835 258.31 55.2487L259.266 55.958C259.266 55.958 258.752 54.3775 258.576 53.9367C258.4 53.496 258.489 53.4099 258.489 53.4099C259.144 54.2282 259.559 55.2115 259.687 56.2507C259.687 56.2507 261.561 57.814 261.668 57.7038Z" fill="#6C63FF"/>
<path opacity="0.1" d="M279.921 116.175C279.921 116.175 274.21 104.351 266.921 110.177C266.921 110.177 265.354 110.7 265.427 112.343C265.427 112.343 266.034 112.033 266.462 113.297C266.622 113.746 266.835 114.175 267.097 114.574C267.449 115.113 267.967 115.523 268.574 115.742C268.574 115.742 271.708 118.217 277.675 116.53C277.675 116.53 279.338 116.816 279.614 116.613L277.709 115.142C277.709 115.142 276.674 116.582 275.231 116.709C275.231 116.709 277.699 115.249 277.433 114.912C277.378 114.843 276.398 114.178 276.398 114.178C276.398 114.178 274.603 116.668 272.356 116.799C272.356 116.799 275.535 115.452 276.025 113.923L274.469 113.008C274.469 113.008 272.702 115.735 270.148 115.976C270.148 115.976 273.419 114.454 274.117 112.828L272.463 112.14C272.463 112.14 270.686 114.764 268.564 114.953C268.564 114.953 272.167 112.815 272.077 112.006C272.077 112.006 270.52 111.458 270.037 111.513C270.037 111.513 268.719 113.366 267.473 113.366C267.473 113.366 269.73 111.682 269.592 111.41C269.592 111.41 267.376 111.238 266.206 111.754C267.259 111.233 268.43 110.996 269.602 111.065C269.139 110.511 268.522 110.105 267.829 109.898C267.829 109.898 269.064 109.426 270.137 111.114C270.137 111.114 271.863 111.317 272.067 111.513C272.067 111.513 271.242 109.702 270.189 108.91C270.189 108.91 271.784 109.234 272.512 111.682L274.186 112.343C274.186 112.343 273.223 109.888 272.336 109.117C272.336 109.117 273.91 109.695 274.593 112.56L276.129 113.438C276.129 113.438 275.459 111.262 274.658 110.187C274.658 110.187 276.004 111.041 276.56 113.71L277.516 114.399C277.516 114.399 276.998 112.818 276.826 112.377C276.653 111.937 276.739 111.851 276.739 111.851C277.396 112.668 277.81 113.652 277.937 114.691C277.937 114.691 279.814 116.279 279.921 116.175Z" fill="#6C63FF"/>
<path opacity="0.1" d="M69.6965 270.014C74.0784 270.014 77.6307 269.618 77.6307 269.129C77.6307 268.641 74.0784 268.244 69.6965 268.244C65.3145 268.244 61.7622 268.641 61.7622 269.129C61.7622 269.618 65.3145 270.014 69.6965 270.014Z" fill="#6C63FF"/>
<path opacity="0.1" d="M17.6838 254.974C22.0657 254.974 25.618 254.577 25.618 254.089C25.618 253.6 22.0657 253.204 17.6838 253.204C13.3018 253.204 9.74951 253.6 9.74951 254.089C9.74951 254.577 13.3018 254.974 17.6838 254.974Z" fill="#6C63FF"/>
<path opacity="0.1" d="M109.343 280.003C113.725 280.003 117.278 279.607 117.278 279.119C117.278 278.63 113.725 278.234 109.343 278.234C104.961 278.234 101.409 278.63 101.409 279.119C101.409 279.607 104.961 280.003 109.343 280.003Z" fill="#6C63FF"/>
<path opacity="0.1" d="M312.514 258.245C316.896 258.245 320.449 257.849 320.449 257.36C320.449 256.871 316.896 256.475 312.514 256.475C308.132 256.475 304.58 256.871 304.58 257.36C304.58 257.849 308.132 258.245 312.514 258.245Z" fill="#6C63FF"/>
<path opacity="0.1" d="M246.49 253.951C250.872 253.951 254.424 253.555 254.424 253.066C254.424 252.577 250.872 252.181 246.49 252.181C242.108 252.181 238.556 252.577 238.556 253.066C238.556 253.555 242.108 253.951 246.49 253.951Z" fill="#6C63FF"/>
<path opacity="0.1" d="M203.778 274.894C208.961 274.894 213.162 274.174 213.162 273.285C213.162 272.397 208.961 271.677 203.778 271.677C198.596 271.677 194.394 272.397 194.394 273.285C194.394 274.174 198.596 274.894 203.778 274.894Z" fill="#6C63FF"/>
<path d="M207.964 257.122C207.964 257.122 194.898 263.858 201.649 271.791C201.649 271.791 202.284 273.513 204.12 273.392C204.12 273.392 203.754 272.724 205.155 272.19C205.654 271.998 206.127 271.747 206.567 271.443C207.16 271.034 207.603 270.443 207.83 269.759C207.83 269.759 210.501 266.192 208.43 259.591C208.43 259.591 208.699 257.725 208.465 257.422L206.877 259.595C206.877 259.595 208.516 260.693 208.706 262.308C208.706 262.308 206.981 259.598 206.636 259.898C206.56 259.96 205.849 261.086 205.849 261.086C205.849 261.086 208.692 263.011 208.903 265.51C208.903 265.51 207.302 262.008 205.573 261.509L204.582 263.272C204.582 263.272 207.688 265.159 208.033 267.996C208.033 267.996 206.228 264.398 204.385 263.672L203.657 265.534C203.657 265.534 206.653 267.435 206.929 269.797C206.929 269.797 204.423 265.848 203.523 265.972C203.523 265.972 202.957 267.721 203.033 268.262C203.033 268.262 205.148 269.673 205.186 271.061C205.186 271.061 203.233 268.599 202.932 268.761C202.932 268.761 202.808 271.237 203.409 272.524C203.409 272.524 202.373 270.686 202.542 268.761C201.937 269.295 201.502 269.994 201.29 270.772C201.29 270.772 200.727 269.412 202.58 268.158C202.58 268.158 202.756 266.233 202.97 265.996C202.97 265.996 200.965 266.974 200.113 268.172C200.113 268.172 200.427 266.385 203.146 265.497L203.837 263.61C203.837 263.61 201.117 264.76 200.279 265.772C200.279 265.772 200.882 263.999 204.051 263.148L204.989 261.427C204.989 261.427 202.574 262.239 201.393 263.148C201.393 263.148 202.308 261.623 205.279 260.92L206.042 259.836C206.042 259.836 204.289 260.459 203.799 260.683C203.309 260.907 203.212 260.796 203.212 260.796C204.108 260.04 205.196 259.547 206.356 259.371C206.356 259.371 208.085 257.239 207.964 257.122Z" fill="#6C63FF"/>
<path d="M246.745 129.914C244.488 123.796 232.064 123.221 226.673 124.78C222.842 125.893 214.767 127.146 210.453 127.776L210.173 127.511C210.732 127.346 210.746 126.939 210.677 126.337C210.637 125.543 210.648 124.747 210.712 123.954C213.355 124.773 215.709 122.835 215.709 122.835C218.815 121.458 217.98 115.562 218.573 113.951C219.018 112.746 219.498 105.646 219.712 102.106H219.757L219.781 100.918C219.812 100.405 219.826 100.105 219.826 100.105C219.826 100.105 220.13 91.4487 220.723 89.696C221.276 88.0845 221.724 79.9651 221.793 78.6773C221.793 78.5671 221.793 78.5085 221.793 78.5085L221.748 77.7579C221.779 77.2104 221.793 76.6009 221.79 75.9604C221.79 73.0164 221.483 69.3079 221.445 68.7087C221.445 68.6227 221.445 68.5194 221.445 68.3954C221.469 67.1386 221.31 60.8441 215.943 58.4648C213.966 57.5833 211.588 56.533 209.286 55.5104C208.693 50.397 207.336 45.3111 207.454 40.1599C207.454 39.3851 207.523 38.6104 207.599 37.839C207.599 38.0629 207.574 38.2901 207.571 38.5277C207.571 39.027 207.571 39.5297 207.571 40.029C207.775 33.5865 210.215 27.1095 209.987 20.8048C209.966 21.4211 209.921 22.0409 209.863 22.6607C209.982 20.5282 209.758 18.3904 209.2 16.3284C208.993 15.6018 208.713 14.8512 208.116 14.3657C207.552 13.9747 206.905 13.719 206.225 13.6185C204.592 13.2014 202.933 12.8931 201.259 12.6957C201.004 11.9187 200.627 11.1875 200.141 10.5298C196.641 5.73663 191.457 1.23272 185.328 0.199714C182.253 -0.31679 178.716 0.11363 176.624 2.30705C176.406 2.49973 176.201 2.7068 176.01 2.92685C174.885 4.26632 174.402 6.02587 173.249 7.3619C173.173 7.45142 173.087 7.53406 173.004 7.62015C170.747 9.63451 167.23 10.0546 164.721 11.8624C164.279 12.1869 163.865 12.5474 163.482 12.9401C162.471 13.9397 161.565 15.0392 160.776 16.2217C159.648 17.8056 158.488 19.455 158.129 21.3454C157.408 25.1331 159.993 28.7245 160.473 32.5363C161.543 41.0655 152.083 48.634 153.874 57.0495C154.352 59.117 155.407 61.007 156.918 62.5004C153.229 65.8335 150.088 69.0668 150.088 69.0668V69.2597H149.505L149.564 69.9483H149.505L149.826 73.6844L149.505 79.1249C149.505 79.1249 149.505 79.1834 149.505 79.2936V79.3212V79.4692C149.505 79.4692 149.505 79.5278 149.505 79.638H149.526C149.633 81.6317 150.057 88.8007 150.561 90.3124C151.155 92.065 151.455 100.722 151.455 100.722C151.455 100.722 152.111 112.956 152.711 114.574C153.312 116.193 152.459 122.07 155.576 123.458C156.487 124.156 157.567 124.602 158.706 124.753C158.547 126.041 158.647 126.974 159.161 127.266C159.381 127.396 159.631 127.467 159.886 127.473C159.675 127.786 159.487 128.114 159.323 128.454C158.087 128.326 156.871 128.04 155.707 127.604C152.359 126.227 141.25 123.128 138.023 125.307C134.796 127.487 127.031 129.463 130.617 138.237C134.202 147.011 135.873 147.231 135.873 147.231C136.976 148.03 137.945 149.001 138.741 150.106C139.817 151.721 149.85 155.416 152.359 155.416C153.425 155.4 154.492 155.452 155.551 155.574C155.551 155.574 152.828 157.957 153.191 159.341C153.553 160.726 152.362 171.806 152.362 171.806C152.362 171.806 155.123 174.582 156.304 170.942L156.345 170.997C156.566 171.297 157.76 172.65 160.007 170.942C160.926 170.246 161.903 169.629 162.927 169.096L173.805 167.561C174.939 167.49 176.076 167.482 177.211 167.536C178.937 167.678 180.631 166.658 181.697 165.87C183.951 166.724 186.484 167.657 187.689 167.998C190.132 168.687 201.362 171.693 203.989 170.753C204.535 170.536 205.02 170.191 205.404 169.747L207.909 169.826L206.736 170.06C206.736 170.06 209.02 170.098 212.126 170.14L211.995 170.215L215.892 170.181C221.593 170.233 227.998 170.25 228.841 170.06C230.159 169.768 237.009 169.974 239.028 170.06H239.591C239.591 170.06 247.118 168.563 244.012 160.942C241.624 155.089 234.283 153.388 231.025 152.919C231.943 152.737 232.733 152.596 233.258 152.513C235.532 152.169 239.95 150.103 240.309 149.397C240.668 148.691 244.371 146.642 245.327 145.475C246.283 144.308 249.013 136.033 246.745 129.914ZM184.4 147.038L184.03 147.159L183.782 147.241L183.306 147.71C182.926 147.455 182.519 147.186 182.094 146.911C182.843 146.956 183.613 147 184.4 147.038Z" fill="url(#paint0_linear)"/>
<path d="M206.404 110.731C206.404 110.731 211.685 124.505 214.687 123.128C217.69 121.75 216.875 115.897 217.448 114.292C218.021 112.687 218.656 100.518 218.656 100.518C218.656 100.518 218.946 91.9101 219.519 90.1677C220.05 88.5666 220.482 80.4919 220.554 79.2213C220.554 79.1111 220.554 79.0526 220.554 79.0526L219.985 69.0668L216.761 68.2645L209.286 71.0192L208.251 76.9177L207.847 79.2213L207.674 80.2027L206.404 110.731Z" fill="#BE6F72"/>
<path opacity="0.1" d="M208.144 108.424C208.144 108.424 213.183 112.539 214.701 112.901C216.22 113.262 217.151 116.472 217.151 116.472" fill="black"/>
<path d="M165.111 111.334C165.111 111.334 159.831 125.107 156.828 123.73C153.826 122.353 154.64 116.499 154.067 114.894C153.495 113.29 152.86 101.121 152.86 101.121C152.86 101.121 152.57 92.5127 151.997 90.7703C151.465 89.1692 151.034 81.0945 150.961 79.8239C150.961 79.7137 150.961 79.6552 150.961 79.6552L151.534 69.6694L154.758 68.8671L162.233 71.6218L163.268 77.5203L163.672 79.8239L163.845 80.8053L165.111 111.334Z" fill="#BE6F72"/>
<path d="M199.495 37.6256H187.709V55.9546H199.495V37.6256Z" fill="#3E373A"/>
<path opacity="0.1" d="M199.495 37.6256H187.709V55.9546H199.495V37.6256Z" fill="black"/>
<path d="M163.04 125.052C163.04 125.052 159.013 129.47 160.507 130.273C162.002 131.075 171.668 146.112 171.668 146.112C171.668 146.112 203.419 150.013 209.407 144.16C215.395 138.306 215.274 127.848 215.274 127.848C215.274 127.848 210.463 128.881 209.938 128.32C209.414 127.759 206.532 125.052 206.532 125.052C206.532 125.052 165.801 122.587 163.04 125.052Z" fill="#4B4B5B"/>
<path opacity="0.02" d="M163.04 125.052C163.04 125.052 159.013 129.47 160.507 130.273C162.002 131.075 171.668 146.112 171.668 146.112C171.668 146.112 203.419 150.013 209.407 144.16C215.395 138.306 215.274 127.848 215.274 127.848C215.274 127.848 210.463 128.881 209.938 128.32C209.414 127.759 206.532 125.052 206.532 125.052C206.532 125.052 165.801 122.587 163.04 125.052Z" fill="black"/>
<path d="M220.199 69.2115L209.845 77.4755L206.715 77.7028L205.566 77.7854L186.263 79.1972L166.247 77.7372L163.268 77.5203L159.472 77.2448L151.534 69.6694C151.534 69.6694 157.153 63.6642 162.074 59.6114C164.014 58.0102 165.846 56.7155 167.182 56.2059L167.41 56.1267C168.25 55.7999 169 55.2782 169.598 54.6048C173.484 50.607 177.076 40.7418 177.076 40.7418C177.076 40.7418 194.218 31.9061 192.148 43.4965C190.077 55.0868 199.854 52.222 199.854 52.222L203.078 53.6888L204.351 54.2708L207.599 55.7548L214.925 59.1087C220.675 61.7497 220.199 69.2115 220.199 69.2115Z" fill="#BE6F72"/>
<path opacity="0.1" d="M185.459 50.18C193.973 50.18 200.876 43.2935 200.876 34.7986C200.876 26.3036 193.973 19.4171 185.459 19.4171C176.945 19.4171 170.043 26.3036 170.043 34.7986C170.043 43.2935 176.945 50.18 185.459 50.18Z" fill="black"/>
<path opacity="0.1" d="M220.223 80.1682H150.961C150.961 80.058 150.961 79.9995 150.961 79.9995L151.534 70.0138C151.534 70.0138 157.153 64.0086 162.074 59.9557L205.559 58.2341L207.581 56.1061L214.908 59.4599C220.661 62.0975 220.199 69.5593 220.199 69.5593C220.199 69.5593 220.986 78.2055 220.223 80.1682Z" fill="black"/>
<path d="M220.223 79.8239H150.961C150.961 79.7137 150.961 79.6552 150.961 79.6552L151.534 69.6694C151.534 69.6694 157.153 63.6642 162.074 59.6114L205.559 57.8897L207.581 55.7617L214.908 59.1156C220.661 61.7532 220.199 69.2149 220.199 69.2149C220.199 69.2149 220.986 77.8612 220.223 79.8239Z" fill="#E7C7CA"/>
<path opacity="0.1" d="M174.357 51.8225C174.357 51.8225 185.283 65.713 199.837 51.5367C214.39 37.3604 201.448 83.1571 201.448 83.1571L170.043 86.8759L174.357 51.8225Z" fill="black"/>
<path d="M174.357 52.5112C174.357 52.5112 185.283 66.4017 199.837 52.2254C214.39 38.0491 201.448 83.8457 201.448 83.8457L170.043 87.5646L174.357 52.5112Z" fill="#E7C7CA"/>
<path opacity="0.1" d="M204.334 54.9491L205.49 72.5412L206.729 78.3949L207.675 82.8713C207.675 82.8713 210.09 117.305 209.4 119.027C208.71 120.748 209.745 122.126 209.89 123.042C210.035 123.957 209.745 126.258 209.859 127.291C209.973 128.324 209.859 128.782 207.216 128.413C204.572 128.045 200.886 127.404 200.886 127.404C200.886 127.404 191.568 128.093 188.348 126.946C185.128 125.8 179.03 125.796 179.03 125.796C179.03 125.796 169.825 126.027 166.837 125.683C163.848 125.338 162.233 129.357 160.28 128.207C158.326 127.056 162.578 115.928 163.958 112.711C165.339 109.495 162.119 101.348 162.119 101.348L166.26 78.4259L167.182 73.2299V56.8946L167.41 56.8154C168.25 56.4885 169 55.9668 169.598 55.2934L170.633 71.732L203.074 72.8821V54.381" fill="black"/>
<path d="M204.334 54.2604L205.49 71.8525L206.729 77.7062L207.675 82.1826C207.675 82.1826 210.09 116.616 209.4 118.338C208.71 120.06 209.745 121.437 209.89 122.353C210.035 123.269 209.745 125.569 209.859 126.602C209.973 127.635 209.859 128.093 207.216 127.724C204.572 127.356 200.886 126.716 200.886 126.716C200.886 126.716 191.568 127.404 188.348 126.258C185.128 125.111 179.03 125.107 179.03 125.107C179.03 125.107 169.825 125.338 166.837 124.994C163.848 124.65 162.233 128.668 160.28 127.518C158.326 126.368 162.578 115.239 163.958 112.023C165.339 108.807 162.119 100.66 162.119 100.66L166.26 77.7372L167.182 72.5412V56.2059L167.41 56.1267C168.25 55.7998 169 55.2781 169.598 54.6047L170.633 71.0433L203.074 72.1934V53.6923" fill="#E7C7CA"/>
<path opacity="0.1" d="M208.064 17.5473C207.868 16.8277 207.595 16.0805 207.029 15.5984C206.489 15.2112 205.864 14.9564 205.207 14.8546C203.633 14.4416 202.032 14.1356 200.417 13.9387C200.186 13.1741 199.836 12.4503 199.381 11.7935C195.999 7.02789 190.995 2.53431 185.107 1.51852C182.025 0.984799 178.453 1.46342 176.479 3.88755C175.396 5.22013 174.93 6.98657 173.836 8.29504C171.727 10.8362 167.92 11.1496 165.263 13.1157C163.845 14.1488 162.816 15.6466 161.812 17.0997C160.725 18.6733 159.606 20.3124 159.261 22.1924C158.571 25.9491 161.059 29.5302 161.518 33.3214C162.554 41.8023 153.443 49.3261 155.165 57.6934C156.169 62.5727 160.687 66.0091 165.36 67.7515C167.006 68.3678 168.887 68.9808 169.656 70.5578C170.001 71.2465 170.06 72.0419 170.385 72.7375C171.475 75.0583 175.061 75.1478 176.987 73.4571C178.912 71.7664 179.52 69.0324 179.748 66.4809C180.672 55.3382 176.2 44.3298 176.721 33.1595C176.876 29.7816 177.829 25.9491 180.862 24.4203C184.945 22.3543 189.856 25.7976 194.349 25.1399C196.476 30.302 196.927 35.9992 195.64 41.4305C194.926 44.4021 193.69 47.2842 193.601 50.3488C193.466 55.0145 195.989 59.2774 198.17 63.4025C198.638 64.1739 198.951 65.0289 199.091 65.9196C199.126 66.8234 198.957 67.7234 198.598 68.5538C197.366 71.8628 195.24 74.9343 194.998 78.4569C194.928 78.8681 195.02 79.2906 195.257 79.6345C195.5 79.864 195.814 80.0048 196.148 80.0339C199.875 80.671 203.098 77.3757 204.917 74.0666C206.945 70.4118 208.126 66.3502 208.375 62.1801C208.751 55.1695 206.232 48.2724 206.387 41.2548C206.567 33.2766 210.18 25.2432 208.064 17.5473Z" fill="black"/>
<path d="M208.409 17.203C208.213 16.4833 207.94 15.7361 207.374 15.2541C206.834 14.8669 206.209 14.6121 205.552 14.5103C203.978 14.0973 202.377 13.7913 200.762 13.5944C200.531 12.8298 200.181 12.1059 199.726 11.4492C196.344 6.68355 191.34 2.18997 185.452 1.17418C182.37 0.640461 178.798 1.11909 176.824 3.54321C175.741 4.87579 175.275 6.64223 174.181 7.95071C172.072 10.4919 168.265 10.8053 165.608 12.7714C164.189 13.8044 163.161 15.3023 162.157 16.7554C161.07 18.329 159.951 19.968 159.606 21.8481C158.916 25.6048 161.404 29.1859 161.863 32.977C162.899 41.458 153.788 48.9818 155.51 57.3491C156.514 62.2284 161.032 65.6648 165.705 67.4072C167.351 68.0235 169.232 68.6364 170.001 70.2135C170.346 70.9022 170.405 71.6976 170.729 72.3931C171.82 74.714 175.406 74.8035 177.332 73.1128C179.257 71.4221 179.865 68.6881 180.092 66.1366C181.017 54.9939 176.545 43.9854 177.066 32.8152C177.221 29.4373 178.174 25.6048 181.207 24.0759C185.29 22.0099 190.201 25.4533 194.694 24.7956C196.821 29.9577 197.272 35.6548 195.985 41.0861C195.271 44.0578 194.035 46.9398 193.945 50.0044C193.811 54.6702 196.334 58.9331 198.515 63.0582C198.983 63.8296 199.296 64.6845 199.436 65.5753C199.471 66.4791 199.302 67.3791 198.943 68.2095C197.711 71.5185 195.585 74.59 195.343 78.1126C195.272 78.5238 195.365 78.9463 195.602 79.2902C195.845 79.5197 196.159 79.6605 196.492 79.6896C200.22 80.3266 203.443 77.0313 205.262 73.7223C207.29 70.0674 208.471 66.0059 208.72 61.8358C209.096 54.8251 206.577 47.9281 206.732 40.9105C206.912 32.9323 210.525 24.8989 208.409 17.203Z" fill="#3E373A"/>
<path d="M200.786 169.665L214.477 170.102L212.513 159.971L202.025 160.967L200.786 169.665Z" fill="#C3C7D9"/>
<path d="M243.208 145.654C242.286 146.801 238.721 148.867 238.376 149.555C238.031 150.244 233.776 152.31 231.588 152.654C229.4 152.999 222.501 154.493 221.234 155.295C220.327 155.874 213.041 157.706 208.254 158.722C206.958 159.028 205.646 159.263 204.323 159.427C202.253 159.541 179.592 151.852 179.592 151.852L183.961 147.376L184.203 147.293C185.439 146.876 191.147 144.952 194.315 144.036C197.884 143.003 202.025 138.757 202.025 138.757C202.025 138.757 208.12 136.691 208.927 136.46C209.735 136.23 206.857 128.427 206.857 128.427C206.857 128.427 220.085 126.595 225.262 125.042C230.438 123.489 242.404 124.064 244.588 130.149C246.773 136.233 244.143 144.507 243.208 145.654Z" fill="#4B4B5B"/>
<path d="M182.926 165.05C182.926 165.05 180.283 167.805 177.635 167.578C174.988 167.351 165.732 168.267 165.732 168.267C164.055 168.934 162.484 169.842 161.07 170.963C158.906 172.664 157.757 171.307 157.543 171.018L157.505 170.963C156.352 174.582 153.708 171.824 153.708 171.824C153.708 171.824 154.858 160.805 154.506 159.427C154.154 158.05 156.78 155.684 156.78 155.684L159.886 154.896L167.755 152.885L179.03 156.786L182.926 165.05Z" fill="#E7C7CA"/>
<path opacity="0.1" d="M159.872 154.896L157.543 171.018L157.505 170.963C156.352 174.582 153.708 171.824 153.708 171.824C153.708 171.824 154.858 160.805 154.506 159.427C154.154 158.05 156.78 155.684 156.78 155.684L159.872 154.896Z" fill="black"/>
<path opacity="0.1" d="M176.155 109.037C176.155 109.037 182.25 111.103 187.544 109.037H176.155Z" fill="black"/>
<path opacity="0.1" d="M196.962 112.942C196.962 112.942 199.492 114.202 201.448 112.942H196.962Z" fill="black"/>
<path opacity="0.1" d="M196.962 115.931C196.962 115.931 201.217 116.499 202.025 115.352L196.962 115.931Z" fill="black"/>
<path opacity="0.1" d="M195.582 122.353C195.582 122.353 203.574 121.32 205.559 119.942L195.582 122.353Z" fill="black"/>
<path opacity="0.1" d="M171.192 119.942C171.192 119.942 175.679 122.466 179.016 122.353L171.192 119.942Z" fill="black"/>
<path opacity="0.1" d="M208.251 158.722C206.954 159.028 205.642 159.263 204.32 159.427C202.249 159.541 179.589 151.852 179.589 151.852L183.958 147.376L184.199 147.293C184.89 147.779 185.456 148.195 185.859 148.512C187.761 150.006 189.597 148.054 190.287 148.054C190.978 148.054 196.958 152.988 196.958 152.988C196.958 152.988 202.48 154.252 203.402 155.399C204.323 156.545 207.543 156.318 208.116 157.12C208.289 157.368 208.309 157.978 208.251 158.722Z" fill="black"/>
<path d="M165.732 128.895C165.732 128.895 160.148 129.215 156.928 127.862C153.708 126.509 143.01 123.386 139.904 125.579C136.798 127.773 129.319 129.711 132.77 138.437C136.221 147.162 137.833 147.389 137.833 147.389C138.901 148.188 139.833 149.153 140.594 150.247C141.629 151.855 151.293 155.526 153.708 155.526C156.124 155.526 160.38 155.526 166.36 159.658C172.341 163.79 177.749 164.252 177.749 164.252C177.749 164.252 185.342 167.351 187.706 168.039C190.07 168.728 200.872 171.71 203.405 170.794C205.939 169.878 207.547 164.135 207.547 164.135C207.547 164.135 208.696 158.969 208.12 158.167C207.543 157.365 204.323 157.592 203.405 156.445C202.487 155.299 196.962 154.035 196.962 154.035C196.962 154.035 190.995 149.097 190.305 149.097C189.614 149.097 187.778 151.046 185.877 149.555C182.089 146.756 178.109 144.225 173.967 141.98C169.598 139.683 165.732 128.895 165.732 128.895Z" fill="#4B4B5B"/>
<path opacity="0.1" d="M154.506 132.225C155.5 132.022 156.528 132.051 157.509 132.31C158.49 132.569 159.398 133.05 160.162 133.716C162.923 136.013 172.214 140.623 172.214 140.623" fill="black"/>
<path opacity="0.1" d="M223.536 132.08C223.536 132.08 211.226 133.94 208.927 136.464L223.536 132.08Z" fill="black"/>
<path d="M237.686 170.102H237.144C235.197 170.033 228.602 169.826 227.332 170.102C225.838 170.446 206.049 170.102 206.049 170.102L209.918 169.3C209.918 169.3 208.482 164.279 209.393 163.862C209.393 163.862 204.216 160.46 208.12 158.164C212.023 155.867 216.23 156.835 216.23 156.835L226.028 153.522L227.909 152.885C227.909 152.885 238.952 153.46 241.941 161.035C244.93 168.611 237.686 170.102 237.686 170.102Z" fill="#E7C7CA"/>
<path opacity="0.1" d="M237.686 170.102H237.144C240.357 167.457 247.625 159.407 226.028 153.539L227.909 152.902C227.909 152.902 238.952 153.477 241.941 161.053C244.93 168.628 237.686 170.102 237.686 170.102Z" fill="black"/>
<path d="M217.383 161.177C217.716 161.177 217.987 160.907 217.987 160.574C217.987 160.241 217.716 159.971 217.383 159.971C217.049 159.971 216.779 160.241 216.779 160.574C216.779 160.907 217.049 161.177 217.383 161.177Z" fill="#4B4B5B"/>
<path d="M213.873 162.172C214.206 162.172 214.477 161.902 214.477 161.569C214.477 161.236 214.206 160.967 213.873 160.967C213.539 160.967 213.269 161.236 213.269 161.569C213.269 161.902 213.539 162.172 213.873 162.172Z" fill="#4B4B5B"/>
<g opacity="0.1">
<path opacity="0.1" d="M196.772 34.2304C196.906 30.443 196.231 26.6705 194.791 23.1635C190.305 23.8315 185.39 20.3778 181.304 22.4438C178.281 23.9727 177.332 27.8051 177.163 31.183C177.121 32.0749 177.114 32.9667 177.132 33.8585C177.132 33.5417 177.132 33.2215 177.163 32.9047C177.321 29.5268 178.271 25.6943 181.304 24.1655C185.39 22.0995 190.298 25.5428 194.791 24.8851C196.01 27.8557 196.682 31.0217 196.772 34.2304Z" fill="black"/>
<path opacity="0.1" d="M162.005 33.6003C162.064 32.85 162.049 32.0957 161.96 31.3483C161.594 28.3182 159.934 25.4223 159.634 22.4679C159.248 26.0318 161.522 29.4545 161.96 33.07C162.005 33.2559 162.005 33.4212 162.005 33.6003Z" fill="black"/>
<path opacity="0.1" d="M180.189 64.501C179.975 67.0559 179.371 69.7865 177.428 71.4806C175.485 73.1748 171.906 73.0818 170.826 70.761C170.481 70.0723 170.429 69.27 170.095 68.5813C169.328 67.0043 167.444 66.3914 165.798 65.775C161.122 64.0292 156.611 60.61 155.607 55.717C155.517 55.2737 155.456 54.8251 155.424 54.3741C155.339 55.3991 155.4 56.4309 155.607 57.4386C156.611 62.3179 161.128 65.7509 165.798 67.4967C167.444 68.113 169.328 68.726 170.095 70.303C170.44 70.9917 170.498 71.7871 170.826 72.4827C171.913 74.8035 175.499 74.893 177.428 73.2023C179.358 71.5116 179.958 68.7776 180.189 66.2226C180.294 64.8779 180.33 63.5286 180.296 62.1801C180.296 62.9618 180.251 63.7331 180.189 64.501Z" fill="black"/>
<path opacity="0.1" d="M206.846 39.2784C206.846 39.7777 206.846 40.2735 206.846 40.7694C207.039 34.3647 209.393 27.9256 209.162 21.6553C208.982 27.4539 206.977 33.3833 206.846 39.2784Z" fill="black"/>
<path opacity="0.1" d="M199.44 65.1862C199.525 64.7776 199.552 64.3591 199.519 63.9431C199.38 63.052 199.067 62.1968 198.598 61.426C196.603 57.6383 194.329 53.7611 194.06 49.5568C194.06 49.7358 194.035 49.9011 194.032 50.0939C193.894 54.7562 196.417 59.0226 198.598 63.1477C198.969 63.7866 199.252 64.4722 199.44 65.1862Z" fill="black"/>
<path opacity="0.1" d="M208.831 60.2037C208.573 64.3754 207.383 68.4367 205.348 72.0901C203.526 75.3992 200.306 78.6945 196.576 78.0575C196.241 78.0287 195.927 77.8865 195.685 77.6546C195.615 77.5757 195.56 77.4847 195.523 77.386C195.481 77.6546 195.447 77.9266 195.426 78.2021C195.355 78.6122 195.448 79.0339 195.685 79.3763C195.927 79.6082 196.241 79.7504 196.576 79.7791C200.306 80.4162 203.526 77.1209 205.348 73.8118C207.383 70.1584 208.573 66.097 208.831 61.9253C208.872 61.1196 208.876 60.3173 208.851 59.515C208.844 59.7457 208.844 59.973 208.831 60.2037Z" fill="black"/>
</g>
<path opacity="0.1" d="M209.393 163.862C209.393 163.862 218.128 167.519 223.888 159.427" stroke="black" stroke-miterlimit="10"/>
<path opacity="0.1" d="M211.112 170.253C211.112 170.253 218.245 165.625 227.332 170.102" stroke="black" stroke-miterlimit="10"/>
<path opacity="0.1" d="M163.361 169.203C163.361 169.203 166.357 162.461 174.357 167.602" stroke="black" stroke-miterlimit="10"/>
<path opacity="0.1" d="M153.65 69.4973L159.758 63.9879C159.758 63.9879 183.444 62.4384 184.424 70.4717C184.424 70.4717 192.821 60.9474 210.48 63.0685L217.952 69.0049L197.3 78.0471L177.232 84.9924L162.45 78.3915L153.65 69.4973Z" fill="black"/>
<path d="M153.65 69.8416L159.758 64.3322C159.758 64.3322 183.444 62.7827 184.424 70.8161C184.424 70.8161 192.821 61.2918 210.48 63.4129L217.952 69.3492L197.3 78.3915L177.232 85.3367L162.45 78.7358L153.65 69.8416Z" fill="#D5D6DB"/>
<path opacity="0.1" d="M150.948 70.5303L153.65 102.784L182.295 104.22L181.052 72.1039L181.028 71.5633L150.948 70.5303Z" fill="black"/>
<path d="M150.948 69.8416L153.65 102.096L182.295 103.531L181.052 71.4152L181.028 70.8746L150.948 69.8416Z" fill="#6C63FF"/>
<path opacity="0.1" d="M219.264 69.8416L189.715 74.2629V106.661L218.591 102.498L219.264 69.8416Z" fill="black"/>
<path d="M219.264 69.1529L189.715 73.5742V105.973L218.591 101.81L219.264 69.1529Z" fill="#6C63FF"/>
<path opacity="0.3" d="M212.296 77.0589L196.334 78.8288L196.683 84.2555L212.285 82.5545L212.296 77.0589Z" fill="white"/>
<path d="M155.203 119.367L156.828 123.73C156.828 123.73 159.244 125.796 161.888 124.763C164.531 123.73 166.837 123.217 167.986 122.212C169.135 121.206 170.747 116.155 170.747 116.155C170.747 116.155 172.359 110.645 173.967 109.268C175.575 107.891 179.834 88.9144 173.967 90.7703C168.1 92.6263 163.613 109.843 163.613 109.843C163.613 109.843 162.578 111.103 161.084 111.22C159.589 111.338 156.597 110.99 156.021 112.253C155.444 113.517 153.477 116.843 155.203 119.367Z" fill="#BE6F72"/>
<path opacity="0.1" d="M189.714 74.2594C188.202 74.5996 186.63 74.5818 185.125 74.2075C183.62 73.8332 182.224 73.1128 181.049 72.1039L182.294 104.217C182.294 104.217 185.228 107.385 189.714 106.661V74.2594Z" fill="black"/>
<path d="M189.714 73.5708C188.202 73.9109 186.63 73.8931 185.125 73.5188C183.62 73.1445 182.224 72.4241 181.049 71.4152L182.294 103.528C182.294 103.528 185.228 106.696 189.714 105.973V73.5708Z" fill="#6C63FF"/>
<path opacity="0.1" d="M189.714 73.5708C188.202 73.9109 186.63 73.8931 185.125 73.5188C183.62 73.1445 182.224 72.4241 181.049 71.4152L182.294 103.528C182.294 103.528 185.228 106.696 189.714 105.973V73.5708Z" fill="black"/>
<path opacity="0.1" d="M190.405 69.9518C190.405 69.9518 202.425 66.2846 205.559 66.8011L190.405 69.9518Z" fill="black"/>
<path opacity="0.1" d="M176.959 68.3506C176.959 68.3506 165.308 65.5959 163.361 66.3776L176.959 68.3506Z" fill="black"/>
<path opacity="0.1" d="M197.983 70.4098C197.983 70.4098 206.021 67.4691 208.927 68.8671L197.983 70.4098Z" fill="black"/>
<path opacity="0.1" d="M193.935 144.177C195.181 143.244 196.507 142.422 197.897 141.722C199.968 140.727 203.764 138.144 203.764 138.144" fill="black"/>
<path opacity="0.1" d="M163.361 109.037C163.361 109.037 158.319 113.152 156.804 113.514C155.289 113.875 154.354 117.084 154.354 117.084" fill="black"/>
<path d="M216.299 118.754L214.691 123.128C214.691 123.128 212.275 125.194 209.628 124.161C206.981 123.128 204.682 122.615 203.53 121.609C202.377 120.604 200.769 115.552 200.769 115.552C200.769 115.552 199.161 110.043 197.549 108.665C195.937 107.288 191.682 88.3118 197.549 90.1678C203.416 92.0237 207.902 109.241 207.902 109.241C207.902 109.241 208.938 110.501 210.432 110.618C211.927 110.735 214.919 110.387 215.495 111.651C216.071 112.915 218.025 116.241 216.299 118.754Z" fill="#BE6F72"/>
<path opacity="0.1" d="M213.479 110.711C213.479 110.711 216.775 112.825 216.761 115.352L213.479 110.711Z" fill="black"/>
<path d="M185.515 49.426C194.029 49.426 200.931 42.5394 200.931 34.0445C200.931 25.5495 194.029 18.663 185.515 18.663C177 18.663 170.098 25.5495 170.098 34.0445C170.098 42.5394 177 49.426 185.515 49.426Z" fill="#BE6F72"/>
<path d="M175.834 29.9159C177.704 29.6232 179.344 28.5385 181.131 27.9153C185.131 26.5138 189.556 27.4745 193.604 28.7383C195.157 29.2238 196.734 29.7713 198.363 29.7713C199.992 29.7713 201.721 29.1067 202.553 27.7052C203.319 26.4174 203.171 24.744 202.525 23.3907C201.88 22.0375 200.8 20.9494 199.709 19.9233C196.12 16.5419 191.668 13.3809 186.743 13.7252C184.762 13.8664 182.867 14.5723 181.045 15.3539C178.751 16.3405 176.517 17.4627 174.357 18.7146C172.697 19.6753 169.622 20.9597 168.666 22.7158C166.492 26.6722 172.452 30.4462 175.834 29.9159Z" fill="#3E373A"/>
<path opacity="0.1" d="M202.553 26.259C201.721 27.6605 199.992 28.3251 198.363 28.3251C196.734 28.3251 195.157 27.7982 193.6 27.3127C189.552 26.049 185.131 25.0849 181.128 26.4897C179.344 27.113 177.701 28.2114 175.83 28.4869C173.104 28.9139 168.714 26.5448 168.238 23.5319C167.703 27.0131 172.793 29.9951 175.83 29.5199C177.701 29.2272 179.344 28.1426 181.128 27.5228C185.131 26.1179 189.552 27.082 193.6 28.3457C195.157 28.8312 196.731 29.3787 198.363 29.3581C199.995 29.3374 201.721 28.6969 202.553 27.2921C202.984 26.5278 203.154 25.6441 203.036 24.775C202.982 25.2982 202.817 25.8041 202.553 26.259Z" fill="black"/>
<path d="M327.662 212.872C327.662 212.872 329.708 215.54 326.716 219.573C323.724 223.605 321.26 227.007 322.254 229.52C322.254 229.52 326.768 222.035 330.44 221.928C334.112 221.821 331.696 217.372 327.662 212.872Z" fill="#6C63FF"/>
<path opacity="0.1" d="M327.661 212.872C327.84 213.13 327.98 213.411 328.079 213.708C331.661 217.909 333.573 221.831 330.126 221.928C326.916 222.021 323.068 227.747 322.146 229.19C322.176 229.306 322.212 229.421 322.253 229.534C322.253 229.534 326.768 222.048 330.44 221.942C334.112 221.835 331.696 217.372 327.661 212.872Z" fill="black"/>
<path d="M331.458 216.274C331.458 217.214 331.351 217.975 331.223 217.975C331.095 217.975 330.985 217.214 330.985 216.274C330.985 215.334 331.116 215.778 331.247 215.778C331.378 215.778 331.458 215.334 331.458 216.274Z" fill="#FFD037"/>
<path d="M332.766 217.396C331.941 217.844 331.22 218.116 331.158 218.002C331.096 217.889 331.713 217.431 332.538 216.969C333.363 216.508 333.039 216.845 333.101 216.969C333.163 217.093 333.594 216.945 332.766 217.396Z" fill="#FFD037"/>
<path d="M316.845 212.872C316.845 212.872 314.799 215.54 317.791 219.573C320.783 223.605 323.247 227.007 322.25 229.52C322.25 229.52 317.739 222.035 314.064 221.928C310.388 221.821 312.821 217.372 316.845 212.872Z" fill="#6C63FF"/>
<path opacity="0.1" d="M316.845 212.872C316.667 213.13 316.527 213.411 316.428 213.708C312.846 217.909 310.934 221.831 314.381 221.928C317.587 222.021 321.439 227.747 322.36 229.19C322.332 229.307 322.295 229.422 322.25 229.534C322.25 229.534 317.739 222.048 314.064 221.942C310.388 221.835 312.821 217.372 316.845 212.872Z" fill="black"/>
<path d="M313.042 216.274C313.042 217.214 313.146 217.975 313.277 217.975C313.408 217.975 313.515 217.214 313.515 216.274C313.515 215.334 313.38 215.778 313.253 215.778C313.125 215.778 313.042 215.334 313.042 216.274Z" fill="#FFD037"/>
<path d="M311.738 217.396C312.562 217.844 313.284 218.116 313.346 218.002C313.408 217.889 312.79 217.431 311.965 216.969C311.141 216.508 311.465 216.845 311.403 216.969C311.341 217.093 310.909 216.945 311.738 217.396Z" fill="#FFD037"/>
<path opacity="0.1" d="M322.253 249.946C334.071 249.946 343.651 248.48 343.651 246.672C343.651 244.863 334.071 243.397 322.253 243.397C310.436 243.397 300.856 244.863 300.856 246.672C300.856 248.48 310.436 249.946 322.253 249.946Z" fill="#6C63FF"/>
<path d="M333.266 225.922L333.162 226.755L333.018 227.933L332.959 228.425L332.814 229.603L332.752 230.095L332.61 231.27L330.971 244.664C330.826 245.859 328.869 246.792 326.505 246.792H317.998C315.634 246.792 313.681 245.859 313.532 244.664L311.893 231.27L311.748 230.095L311.689 229.603L311.544 228.425L311.482 227.933L311.341 226.755L311.237 225.922C311.158 225.233 312.214 224.676 313.553 224.676H330.954C332.289 224.676 333.349 225.244 333.266 225.922Z" fill="#65617D"/>
<path d="M333.163 226.755L333.021 227.933H311.486L311.341 226.755H333.163Z" fill="#9D9CB5"/>
<path d="M332.959 228.425L332.817 229.603H311.689L311.544 228.425H332.959Z" fill="#9D9CB5"/>
<path d="M332.755 230.095L332.61 231.273H311.893L311.751 230.095H332.755Z" fill="#9D9CB5"/>
</g>
<defs>
<linearGradient id="paint0_linear" x1="188.655" y1="172.829" x2="188.655" y2="-1.96091e-06" gradientUnits="userSpaceOnUse">
<stop stop-color="#808080" stop-opacity="0.25"/>
<stop offset="0.54" stop-color="#808080" stop-opacity="0.12"/>
<stop offset="1" stop-color="#808080" stop-opacity="0.1"/>
</linearGradient>
<clipPath id="clip0">
<rect width="353" height="280" fill="white"/>
</clipPath>
</defs>
</svg>
