<svg width="400" viewBox="0 0 386 331" fill="none" xmlns="http://www.w3.org/2000/svg">
<path opacity="0.1" d="M168.983 4.8405C186.349 -1.79927 207.491 3.91117 225.545 12.2396C282.25 38.4032 323.56 88.069 356.382 138.668C368.265 156.99 379.553 176.118 384.021 196.571C393.117 238.201 369.392 281.299 329.042 296.401C315.321 301.542 300.246 303.65 285.148 304.824C258.301 306.916 230.505 306.086 203.873 298.339C184.881 292.803 166.915 283.897 149.683 274.058C101.56 246.565 57.6122 210.863 25.9671 167.252C12.088 148.124 0.346527 126.559 0.00820054 104.488C-0.330126 82.4179 13.6528 60.2405 36.659 56.4876C46.1706 54.9374 56.2319 56.5508 66.0473 58.2118C80.4992 60.6597 95.1472 63.2341 109.434 62.1664C124.193 61.0551 143.39 55.1232 146.081 40.6296C148.93 25.0683 151.64 11.4724 168.983 4.8405Z" fill="#6C63FF"/>
<path d="M93.8165 304.033C93.8165 304.033 112.371 302.883 110.183 316.257C110.183 316.257 110.618 318.63 108.534 319.694C108.534 319.694 108.503 318.701 106.631 319.037C105.966 319.155 105.289 319.189 104.616 319.14C103.706 319.075 102.841 318.707 102.152 318.092C102.152 318.092 96.9345 315.878 94.9084 307.106C94.9084 307.106 93.4052 305.196 93.4667 304.702L96.5962 306.078C96.5962 306.078 95.5274 308.403 96.3694 310.333C96.3694 310.333 96.4693 306.165 97.0729 306.26C97.1921 306.28 98.6992 307.051 98.6992 307.051C98.6992 307.051 96.8576 311.096 98.2455 314.039C98.2455 314.039 97.7188 309.052 99.2721 307.343L101.479 308.668C101.479 308.668 99.3259 312.848 100.787 316.257C100.787 316.257 100.402 311.025 101.94 308.989L103.939 310.57C103.939 310.57 101.917 314.691 103.151 317.523C103.151 317.523 103.309 311.429 104.37 310.97C104.37 310.97 106.119 312.552 106.385 313.208C106.385 313.208 105.001 316.198 105.858 317.776C105.858 317.776 106.385 313.718 106.819 313.699C106.819 313.699 108.557 316.388 108.741 318.23C108.741 318.23 108.664 315.49 107.238 313.441C107.238 313.441 108.922 313.738 109.906 314.861C109.906 314.861 109.633 312.959 106.811 312.793C106.811 312.793 105.373 310.756 104.985 310.63C104.985 310.63 107.796 310.389 109.499 311.168C109.499 311.168 107.999 309.372 104.47 310.187L102.498 308.534C102.498 308.534 106.2 308.012 107.765 308.589C107.765 308.589 105.962 307.007 101.967 308.158L99.8218 306.837C99.8218 306.837 102.974 306.137 104.854 306.39C104.854 306.39 102.871 305.291 99.1913 306.481L97.6535 305.774C97.6535 305.774 99.9603 305.307 100.641 305.232C101.321 305.157 101.352 304.967 101.352 304.967C99.8886 304.715 98.3858 304.886 97.0114 305.461C97.0114 305.461 93.7589 304.263 93.8165 304.033Z" fill="#6C63FF"/>
<path opacity="0.1" d="M106.596 323.142C113.849 323.142 119.729 322.121 119.729 320.86C119.729 319.6 113.849 318.578 106.596 318.578C99.3426 318.578 93.4626 319.6 93.4626 320.86C93.4626 322.121 99.3426 323.142 106.596 323.142Z" fill="#6C63FF"/>
<path d="M68.9609 295.037C68.9609 295.037 79.4221 294.388 78.188 301.93C78.2532 302.312 78.1986 302.706 78.032 303.054C77.8655 303.402 77.5956 303.687 77.2615 303.867C77.2615 303.867 77.2422 303.31 76.1888 303.5C75.8144 303.566 75.4335 303.584 75.0547 303.555C74.5401 303.522 74.0507 303.315 73.6629 302.966C73.6629 302.966 70.7256 301.712 69.5722 296.769C69.5722 296.769 68.7264 295.689 68.7572 295.412L70.5257 296.203C70.5257 296.203 69.9221 297.516 70.395 298.604C70.395 298.604 70.4526 296.251 70.7794 296.306C70.8486 296.306 71.6983 296.761 71.6983 296.761C71.6983 296.761 70.6602 299.043 71.4445 300.716C71.4445 300.716 71.1447 297.904 72.0212 296.939L73.2631 297.686C73.2631 297.686 72.052 300.059 72.8786 301.965C72.8786 301.965 72.6671 299.015 73.5283 297.868L74.6548 298.77C74.6548 298.77 73.5014 301.091 74.2127 302.689C74.2127 302.689 74.3011 299.252 74.9009 298.995C74.9009 298.995 75.8851 299.889 76.035 300.257C76.035 300.257 75.2661 301.942 75.739 302.831C75.739 302.831 76.035 300.546 76.2811 300.534C76.2811 300.534 77.2615 302.048 77.3614 303.088C77.3124 302.128 77.0209 301.197 76.5156 300.387C77.0812 300.494 77.604 300.769 78.0188 301.178C78.0188 301.178 77.8689 300.107 76.2734 300.012C76.2734 300.012 75.4622 298.861 75.2469 298.794C75.2469 298.794 76.8309 298.655 77.792 299.094C77.792 299.094 76.9462 298.082 74.9547 298.541L73.8436 297.607C73.8436 297.607 75.9312 297.315 76.8155 297.639C76.8155 297.639 75.7967 296.745 73.5437 297.398L72.3365 296.65C73.2665 296.441 74.219 296.358 75.17 296.401C75.17 296.401 74.0551 295.78 71.979 296.453L71.1139 296.057C71.1139 296.057 72.4172 295.792 72.7979 295.753C73.1785 295.713 73.2015 295.602 73.2015 295.602C72.3757 295.461 71.528 295.559 70.7525 295.883C70.7525 295.883 68.9302 295.167 68.9609 295.037Z" fill="#6C63FF"/>
<path opacity="0.1" d="M76.1657 305.809C80.2553 305.809 83.5705 305.232 83.5705 304.52C83.5705 303.808 80.2553 303.231 76.1657 303.231C72.0762 303.231 68.761 303.808 68.761 304.52C68.761 305.232 72.0762 305.809 76.1657 305.809Z" fill="#6C63FF"/>
<path d="M150.205 288.014C150.205 288.014 160.666 287.365 159.432 294.907C159.497 295.289 159.442 295.683 159.276 296.031C159.109 296.379 158.839 296.664 158.505 296.845C158.505 296.845 158.486 296.287 157.432 296.477C157.058 296.543 156.677 296.561 156.298 296.532C155.784 296.5 155.294 296.292 154.907 295.943C154.907 295.943 151.969 294.689 150.816 289.746C150.816 289.746 149.97 288.666 150.001 288.39L151.769 289.181C151.769 289.181 151.166 290.494 151.639 291.581C151.639 291.581 151.696 289.228 152.023 289.283C152.092 289.283 152.942 289.738 152.942 289.738C152.942 289.738 151.904 292.02 152.688 293.693C152.688 293.693 152.388 290.881 153.265 289.916L154.507 290.664C154.507 290.664 153.296 293.036 154.122 294.942C154.122 294.942 153.911 291.992 154.772 290.845L155.898 291.747C155.898 291.747 154.745 294.068 155.456 295.666C155.456 295.666 155.545 292.23 156.145 291.973C156.145 291.973 157.129 292.866 157.279 293.234C157.279 293.234 156.51 294.919 156.983 295.808C156.983 295.808 157.279 293.523 157.525 293.511C157.525 293.511 158.505 295.025 158.605 296.066C158.556 295.105 158.265 294.174 157.759 293.365C158.325 293.471 158.848 293.746 159.262 294.155C159.262 294.155 159.113 293.084 157.517 292.989C157.517 292.989 156.706 291.838 156.491 291.771C156.491 291.771 158.075 291.632 159.036 292.071C159.036 292.071 158.19 291.059 156.198 291.518L155.087 290.584C155.087 290.584 157.175 290.292 158.059 290.616C158.059 290.616 157.04 289.722 154.787 290.375L153.58 289.627C154.51 289.418 155.463 289.335 156.414 289.378C156.414 289.378 155.299 288.757 153.223 289.43L152.358 289.034C152.358 289.034 153.661 288.769 154.042 288.73C154.422 288.69 154.445 288.579 154.445 288.579C153.619 288.439 152.772 288.536 151.996 288.86C151.996 288.86 150.174 288.144 150.205 288.014Z" fill="#6C63FF"/>
<path opacity="0.1" d="M157.409 298.786C161.499 298.786 164.814 298.209 164.814 297.497C164.814 296.785 161.499 296.208 157.409 296.208C153.32 296.208 150.005 296.785 150.005 297.497C150.005 298.209 153.32 298.786 157.409 298.786Z" fill="#6C63FF"/>
<path d="M326.324 302.286C326.324 302.286 338.953 301.495 337.473 310.59C337.549 311.052 337.481 311.527 337.28 311.947C337.078 312.368 336.753 312.712 336.351 312.931C336.351 312.931 336.327 312.255 335.055 312.485C334.602 312.564 334.141 312.586 333.682 312.552C333.063 312.51 332.474 312.26 332.006 311.84C332.006 311.84 328.454 310.333 327.073 304.362C327.073 304.362 326.051 303.061 326.093 302.729L328.223 303.662C328.223 303.662 327.496 305.244 328.069 306.561C328.069 306.561 328.138 303.721 328.546 303.792C328.631 303.792 329.653 304.338 329.653 304.338C329.653 304.338 328.4 307.106 329.346 309.084C329.346 309.084 328.988 305.691 330.045 304.528L331.545 305.426C331.545 305.426 330.08 308.273 331.076 310.594C331.076 310.594 330.818 307.035 331.845 305.647L333.206 306.738C333.206 306.738 331.829 309.542 332.667 311.484C332.667 311.484 332.779 307.34 333.502 307.023C333.502 307.023 334.69 308.103 334.87 308.546C334.87 308.546 333.928 310.582 334.513 311.658C334.513 311.658 334.87 308.89 335.166 308.89C335.166 308.89 336.351 310.721 336.474 311.974C336.416 310.815 336.065 309.692 335.455 308.716C336.138 308.849 336.769 309.184 337.269 309.681C337.269 309.681 337.085 308.388 335.159 308.273C335.159 308.273 334.182 306.885 333.921 306.802C333.921 306.802 335.843 306.636 336.996 307.166C336.996 307.166 335.974 305.948 333.571 306.501L332.229 305.374C332.229 305.374 334.747 305.018 335.816 305.41C335.816 305.41 334.586 304.33 331.868 305.117L330.407 304.219C330.407 304.219 332.552 303.745 333.832 303.915C333.832 303.915 332.483 303.167 329.988 303.978L328.942 303.496C328.942 303.496 330.514 303.175 330.976 303.128C331.437 303.08 331.46 302.946 331.46 302.946C330.465 302.775 329.443 302.892 328.508 303.282C328.508 303.282 326.285 302.436 326.324 302.286Z" fill="#6C63FF"/>
<path opacity="0.1" d="M335.02 315.296C339.957 315.296 343.959 314.6 343.959 313.742C343.959 312.884 339.957 312.188 335.02 312.188C330.084 312.188 326.082 312.884 326.082 313.742C326.082 314.6 330.084 315.296 335.02 315.296Z" fill="#6C63FF"/>
<path d="M240.723 159.248H214.13V132.293H240.742L240.723 159.248ZM240.339 118.606H214.514C214.514 76.7193 253.222 79.1672 253.222 52.6674C253.222 38.071 241.607 26.3773 227.417 26.3773C213.226 26.3773 201.616 38.9845 201.616 53.0827H175.811C175.799 46.1084 177.126 39.2004 179.715 32.7547C182.305 26.309 186.105 20.4524 190.9 15.5209C195.694 10.5893 201.388 6.67975 207.654 4.01635C213.921 1.35294 220.637 -0.0119029 227.417 7.82005e-05C255.921 7.82005e-05 279.023 23.3915 279.023 52.6674C279.023 85.803 240.32 89.5757 240.32 118.606H240.339Z" fill="#6C63FF"/>
<path opacity="0.1" d="M108.088 151.22H101.229V144.252H108.088V151.22ZM107.984 140.74H101.333C101.333 129.944 111.31 130.573 111.31 123.736C111.306 122.841 111.131 121.956 110.795 121.131C110.459 120.306 109.968 119.557 109.35 118.927C108.732 118.297 108 117.799 107.195 117.46C106.39 117.121 105.528 116.949 104.658 116.953C102.902 116.995 101.229 117.735 99.9922 119.018C98.7549 120.301 98.0489 122.027 98.0225 123.834H91.3713C91.4155 120.244 92.8296 116.815 95.3088 114.287C97.788 111.759 101.134 110.335 104.625 110.321C108.115 110.307 111.472 111.704 113.97 114.212C116.468 116.72 117.909 120.138 117.98 123.728C117.961 132.27 107.984 133.242 107.984 140.724V140.74Z" fill="#6C63FF"/>
<path opacity="0.1" d="M237.716 271.899H230.858V264.931H237.716V271.899ZM237.613 261.42H230.961C230.961 250.624 240.938 251.252 240.938 244.415C240.935 243.52 240.76 242.635 240.424 241.81C240.087 240.985 239.596 240.236 238.979 239.606C238.361 238.977 237.629 238.478 236.824 238.139C236.019 237.801 235.157 237.629 234.287 237.633C232.531 237.675 230.858 238.415 229.621 239.698C228.384 240.981 227.678 242.707 227.651 244.514H221C221.044 240.923 222.458 237.495 224.937 234.967C227.417 232.439 230.762 231.014 234.253 231C237.744 230.986 241.101 232.384 243.599 234.892C246.097 237.4 247.537 240.817 247.609 244.407C247.589 252.949 237.613 253.922 237.613 261.404V261.42Z" fill="#6C63FF"/>
<path opacity="0.1" d="M141.747 214.884H134.888V207.935H141.747V214.884ZM141.647 204.408H134.996C134.996 193.608 144.973 194.241 144.973 187.403C144.969 186.509 144.794 185.624 144.458 184.799C144.122 183.974 143.631 183.225 143.013 182.596C142.395 181.966 141.663 181.468 140.858 181.13C140.053 180.792 139.191 180.62 138.322 180.625C136.558 180.658 134.876 181.395 133.631 182.68C132.386 183.966 131.676 185.699 131.651 187.514H125C125.044 183.923 126.458 180.495 128.937 177.967C131.417 175.439 134.762 174.014 138.253 174C141.744 173.986 145.101 175.384 147.599 177.892C150.097 180.4 151.537 183.817 151.609 187.407C151.62 195.949 141.647 196.926 141.647 204.408Z" fill="#6C63FF"/>
<path opacity="0.1" d="M191.601 113.932H186.63V108.906H191.601V113.932ZM191.528 106.335H186.706C186.706 98.5131 193.938 98.9678 193.938 94.0167C193.935 93.3686 193.808 92.7274 193.564 92.1298C193.32 91.5322 192.964 90.9899 192.517 90.5338C192.069 90.0777 191.538 89.7168 190.955 89.4716C190.372 89.2265 189.747 89.1019 189.117 89.1051C187.841 89.1316 186.625 89.6669 185.726 90.598C184.826 91.5291 184.314 92.7832 184.296 94.0958H179.475C179.464 91.4653 180.471 88.9384 182.272 87.071C184.073 85.2036 186.521 84.1486 189.079 84.1381C191.636 84.1276 194.092 85.1625 195.908 87.0151C197.723 88.8677 198.749 91.3862 198.759 94.0167C198.752 100.206 191.528 100.913 191.528 106.335Z" fill="#6C63FF"/>
<path opacity="0.1" d="M291.126 191.794H286.155V186.768H291.126V191.794ZM291.053 184.197H286.232C286.232 176.375 293.464 176.83 293.464 171.879C293.461 171.231 293.333 170.589 293.089 169.992C292.846 169.394 292.49 168.852 292.042 168.396C291.594 167.94 291.064 167.579 290.48 167.334C289.897 167.089 289.272 166.964 288.642 166.967C287.367 166.994 286.151 167.529 285.251 168.46C284.352 169.391 283.839 170.645 283.821 171.958H279C278.99 169.327 279.996 166.8 281.797 164.933C283.598 163.066 286.047 162.011 288.604 162C291.161 161.99 293.618 163.024 295.433 164.877C297.249 166.73 298.275 169.248 298.285 171.879C298.277 178.068 291.053 178.775 291.053 184.197Z" fill="#6C63FF"/>
<path opacity="0.1" d="M276.505 121.027H273.695V118.179H276.505V121.027ZM276.463 116.736H273.722C273.722 112.315 277.808 112.572 277.808 109.772C277.808 109.406 277.738 109.043 277.601 108.705C277.464 108.367 277.263 108.061 277.009 107.803C276.756 107.546 276.456 107.342 276.126 107.205C275.796 107.068 275.442 106.999 275.086 107.004C274.366 107.019 273.678 107.321 273.17 107.847C272.662 108.373 272.371 109.082 272.361 109.823H269.635C269.667 108.362 270.252 106.971 271.266 105.947C272.28 104.923 273.643 104.347 275.064 104.341C276.485 104.336 277.852 104.901 278.874 105.917C279.896 106.933 280.491 108.319 280.534 109.78C280.55 113.256 276.463 113.671 276.463 116.736Z" fill="#6C63FF"/>
<path opacity="0.1" d="M205.87 200.685H203.06V197.838H205.87V200.685ZM205.828 196.395H203.087C203.087 191.973 207.174 192.231 207.174 189.431C207.174 189.064 207.103 188.702 206.966 188.364C206.829 188.026 206.628 187.719 206.375 187.462C206.121 187.204 205.821 187.001 205.491 186.864C205.161 186.727 204.808 186.658 204.452 186.662C203.731 186.678 203.044 186.98 202.535 187.506C202.027 188.032 201.737 188.74 201.726 189.482H199C199.032 188.021 199.617 186.63 200.631 185.606C201.645 184.582 203.008 184.006 204.429 184C205.85 183.994 207.217 184.56 208.239 185.576C209.261 186.591 209.857 187.978 209.9 189.439C209.915 192.915 205.828 193.33 205.828 196.395Z" fill="#6C63FF"/>
<path opacity="0.1" d="M319.473 250.528H316.662V247.68H319.473V250.528ZM319.43 246.237H316.705C316.705 241.812 320.795 242.073 320.795 239.273C320.79 238.534 320.5 237.828 319.989 237.309C319.478 236.79 318.788 236.501 318.069 236.505C317.348 236.519 316.661 236.821 316.152 237.347C315.643 237.874 315.353 238.582 315.344 239.324H312.618C312.649 237.863 313.235 236.472 314.249 235.448C315.263 234.424 316.626 233.848 318.047 233.842C319.468 233.837 320.835 234.402 321.857 235.418C322.879 236.434 323.474 237.82 323.517 239.281C323.533 242.773 319.446 243.172 319.446 246.237H319.43Z" fill="#6C63FF"/>
</svg>
