<svg id="ac1c6e10-1fed-4119-88d8-251cf569263e" data-name="Layer 1" xmlns="http://www.w3.org/2000/svg" xmlns:xlink="http://www.w3.org/1999/xlink" viewBox="0 0 117.83 122"><defs><style>.bbe71765-50e3-40be-b6cf-0c50de6404b0{fill:#c4b1d2;}.a2c26600-a388-40b1-b711-9c9082cb5685,.a871d8f1-54c6-47c0-8e02-be2ccb3e2bb2,.a9f38dde-3ccf-4076-90b2-90dfd3135152,.ad97671a-9d3c-4202-93ef-fa9eaea9b48c,.adc3fc72-98dc-4189-b1a2-93d92b7ff54e,.ae6ad9b7-bc8f-4110-9770-f8ee87518208,.ae9a7058-613f-4f93-988e-2c937a2f8f39,.b153f240-1d2f-4631-8356-7844899f4108,.b2c44982-fc4b-4a38-9e53-11db2f9d711a,.b7bbee07-c55b-41e4-af1c-ac291ed64458,.b93758d2-a2f3-4506-8ad5-aa38ea5e27fb,.b9ff7a1c-46d2-4640-be3e-a3d186ee9591,.bbe71765-50e3-40be-b6cf-0c50de6404b0,.efa63681-8c26-4b74-bca6-990a53ef5355,.f3359064-5190-4e22-8785-f0e4230d718f,.f9f91014-42ca-452e-8ce6-37863be86814,.fe6b855b-269b-4800-bb97-9774e95db2cf{stroke:#231f20;stroke-miterlimit:10;}.e61912f7-6e3a-4f24-a74f-2b59bb6fe827{opacity:0.33;}.b2c44982-fc4b-4a38-9e53-11db2f9d711a{fill:#3f3b6e;}.b153f240-1d2f-4631-8356-7844899f4108{fill:#7374b7;}.f3359064-5190-4e22-8785-f0e4230d718f{fill:#b3bfe2;}.a9f38dde-3ccf-4076-90b2-90dfd3135152{fill:url(#b67320ea-0f9d-4b2d-bc62-776a26460875);}.b9ff7a1c-46d2-4640-be3e-a3d186ee9591{fill:url(#be4b0646-7da0-4659-9e91-4632b98064e4);}.ae6ad9b7-bc8f-4110-9770-f8ee87518208{fill:url(#afb67563-88b8-4b36-b0bd-96c5c9d1d099);}.ae9a7058-613f-4f93-988e-2c937a2f8f39{fill:url(#e13b3fe3-79f1-4921-a3cd-2755e8201aa9);}.f9f91014-42ca-452e-8ce6-37863be86814{fill:url(#b3639495-d7ec-4728-9295-0f4390f08005);}.a2c26600-a388-40b1-b711-9c9082cb5685{fill:url(#eeea6f91-0324-49f0-865a-85ed07f47e04);}.adc3fc72-98dc-4189-b1a2-93d92b7ff54e{fill:url(#b087b202-b345-4923-87fb-4722d4f46e2a);}.efa63681-8c26-4b74-bca6-990a53ef5355{fill:url(#b11e86b7-aa82-43b4-98c2-335d3a322af9);}.fe6b855b-269b-4800-bb97-9774e95db2cf{fill:url(#b6b916c2-71ab-4fd9-b3e9-5c7ab6bbf649);}.b7bbee07-c55b-41e4-af1c-ac291ed64458{fill:url(#a1f92fc5-dc68-42b9-9b76-ed8a972918ed);}.ad97671a-9d3c-4202-93ef-fa9eaea9b48c{fill:url(#b5ce94f7-32c1-40b2-b4b7-5e43e6296707);}.b93758d2-a2f3-4506-8ad5-aa38ea5e27fb{fill:url(#a80946ff-9088-4e19-917f-ec204799ce8e);}.a871d8f1-54c6-47c0-8e02-be2ccb3e2bb2{fill:url(#b8487462-0fe9-4a7d-aa86-a32e7a26b9f8);}</style><linearGradient id="b67320ea-0f9d-4b2d-bc62-776a26460875" x1="337.96" y1="117.74" x2="373.04" y2="117.74" gradientUnits="userSpaceOnUse"><stop offset="0" stop-color="#c6812a"/><stop offset="0.1" stop-color="#fff"/><stop offset="0.23" stop-color="#ebbc61"/><stop offset="0.35" stop-color="#f2e58a"/><stop offset="0.48" stop-color="#fff"/><stop offset="0.58" stop-color="#f2e58a"/><stop offset="0.66" stop-color="#ebbc61"/><stop offset="0.84" stop-color="#c6812a"/><stop offset="0.85" stop-color="#c88530"/><stop offset="0.88" stop-color="#cc8f42"/><stop offset="0.9" stop-color="#d4a05f"/><stop offset="0.93" stop-color="#dfb887"/><stop offset="0.96" stop-color="#edd6ba"/><stop offset="1" stop-color="#fdfbf8"/><stop offset="1" stop-color="#fff"/></linearGradient><linearGradient id="be4b0646-7da0-4659-9e91-4632b98064e4" x1="57.85" y1="28.21" x2="63.23" y2="28.21" xlink:href="#b67320ea-0f9d-4b2d-bc62-776a26460875"/><linearGradient id="afb67563-88b8-4b36-b0bd-96c5c9d1d099" x1="353.53" y1="127.48" x2="357.23" y2="127.48" xlink:href="#b67320ea-0f9d-4b2d-bc62-776a26460875"/><linearGradient id="e13b3fe3-79f1-4921-a3cd-2755e8201aa9" x1="352.7" y1="134.99" x2="357.84" y2="134.99" xlink:href="#b67320ea-0f9d-4b2d-bc62-776a26460875"/><linearGradient id="b3639495-d7ec-4728-9295-0f4390f08005" x1="351.53" y1="144.98" x2="359.72" y2="144.98" xlink:href="#b67320ea-0f9d-4b2d-bc62-776a26460875"/><linearGradient id="eeea6f91-0324-49f0-865a-85ed07f47e04" x1="58.32" y1="30.01" x2="62.22" y2="30.01" xlink:href="#b67320ea-0f9d-4b2d-bc62-776a26460875"/><linearGradient id="b087b202-b345-4923-87fb-4722d4f46e2a" x1="351.33" y1="145.24" x2="359.72" y2="145.24" xlink:href="#b67320ea-0f9d-4b2d-bc62-776a26460875"/><linearGradient id="b11e86b7-aa82-43b4-98c2-335d3a322af9" x1="349.72" y1="146.02" x2="360.73" y2="146.02" gradientTransform="matrix(1, -0.01, 0.01, 1, -1.23, 3.03)" xlink:href="#b67320ea-0f9d-4b2d-bc62-776a26460875"/><linearGradient id="b6b916c2-71ab-4fd9-b3e9-5c7ab6bbf649" x1="344.82" y1="118.37" x2="366.38" y2="118.37" xlink:href="#b67320ea-0f9d-4b2d-bc62-776a26460875"/><linearGradient id="a1f92fc5-dc68-42b9-9b76-ed8a972918ed" x1="342.72" y1="108.49" x2="367.72" y2="108.49" xlink:href="#b67320ea-0f9d-4b2d-bc62-776a26460875"/><linearGradient id="b5ce94f7-32c1-40b2-b4b7-5e43e6296707" x1="346.72" y1="118.8" x2="356.16" y2="118.8" xlink:href="#b67320ea-0f9d-4b2d-bc62-776a26460875"/><linearGradient id="a80946ff-9088-4e19-917f-ec204799ce8e" x1="55.4" y1="11.32" x2="65.82" y2="11.32" xlink:href="#b67320ea-0f9d-4b2d-bc62-776a26460875"/><linearGradient id="b8487462-0fe9-4a7d-aa86-a32e7a26b9f8" x1="55.07" y1="10.8" x2="65.49" y2="10.8" xlink:href="#b67320ea-0f9d-4b2d-bc62-776a26460875"/></defs><title>books+cup</title><path class="bbe71765-50e3-40be-b6cf-0c50de6404b0" d="M408.76,224l-41.94,3.54-2.9-1.67L405.58,223Z" transform="translate(-295.03 -106.49)"/><path class="bbe71765-50e3-40be-b6cf-0c50de6404b0" d="M366.53,215.31l41.28-3.71-.28,11.8-40.63,3.43Z" transform="translate(-295.03 -106.49)"/><path class="bbe71765-50e3-40be-b6cf-0c50de6404b0" d="M366.53,215l41.28-4-55.31-1-45.17,5Z" transform="translate(-295.03 -106.49)"/><path class="bbe71765-50e3-40be-b6cf-0c50de6404b0" d="M302.72,215.68c0,.82.25,11.68.23,12.31H367c-.41-1.09.06-5.51,0-7.51a31.46,31.46,0,0,1-.12-5C364.16,215.51,309.87,214.26,302.72,215.68Z" transform="translate(-295.03 -106.49)"/><path class="bbe71765-50e3-40be-b6cf-0c50de6404b0" d="M302.79,215h63l43.87-4.08-57.31-1.09Z" transform="translate(-295.03 -106.49)"/><g class="e61912f7-6e3a-4f24-a74f-2b59bb6fe827"><rect class="bbe71765-50e3-40be-b6cf-0c50de6404b0" x="10.69" y="108.5" width="1" height="12"/><rect class="bbe71765-50e3-40be-b6cf-0c50de6404b0" x="12.69" y="108.5" width="1" height="12"/><rect class="bbe71765-50e3-40be-b6cf-0c50de6404b0" x="65.69" y="108.5" width="1" height="12"/><rect class="bbe71765-50e3-40be-b6cf-0c50de6404b0" x="67.69" y="108.5" width="1" height="12"/><path class="bbe71765-50e3-40be-b6cf-0c50de6404b0" d="M352.72,225h-38v-7h38Zm-37-1h37v-6h-37Z" transform="translate(-295.03 -106.49)"/></g><path class="b2c44982-fc4b-4a38-9e53-11db2f9d711a" d="M297.83,215h36.41l2.44-1H300.55Z" transform="translate(-295.03 -106.49)"/><path class="b2c44982-fc4b-4a38-9e53-11db2f9d711a" d="M334,207.12l-35.85-.7.74,8.57,35.27.48Z" transform="translate(-295.03 -106.49)"/><path class="b2c44982-fc4b-4a38-9e53-11db2f9d711a" d="M334,206.79l-35.85-.7,47.78-3.39,39.25,1.09Z" transform="translate(-295.03 -106.49)"/><path class="b2c44982-fc4b-4a38-9e53-11db2f9d711a" d="M412.25,202.7c.32.76-.17,3-.2,4.87,0,2.39.4,3.78,0,4.16l-77.95,4c.3-.81-.29-4-.3-5.42a20.46,20.46,0,0,0-.1-3.62C336,206.52,406,202,412.25,202.7Z" transform="translate(-295.03 -106.49)"/><path class="b2c44982-fc4b-4a38-9e53-11db2f9d711a" d="M412.2,202.7l-77.57,3.91-38.09-.75,51-6.34Z" transform="translate(-295.03 -106.49)"/><path class="b2c44982-fc4b-4a38-9e53-11db2f9d711a" d="M341.7,210.94a2.2,2.2,0,1,1-2.2-2.17A2.18,2.18,0,0,1,341.7,210.94Z" transform="translate(-295.03 -106.49)"/><path class="b2c44982-fc4b-4a38-9e53-11db2f9d711a" d="M408.35,207.66a2.2,2.2,0,1,1-2.2-2.17A2.2,2.2,0,0,1,408.35,207.66Z" transform="translate(-295.03 -106.49)"/><path class="b153f240-1d2f-4631-8356-7844899f4108" d="M404.7,202.5l-49.93,2.23-2.69-1.5,49.66-1.67Z" transform="translate(-295.03 -106.49)"/><path class="b153f240-1d2f-4631-8356-7844899f4108" d="M354.49,193.72l49.31-2.33-.24,10.55-48.71,2.12Z" transform="translate(-295.03 -106.49)"/><path class="b153f240-1d2f-4631-8356-7844899f4108" d="M354.49,194l49.31-2.33-51.34-1.78L310.53,194Z" transform="translate(-295.03 -106.49)"/><path class="b153f240-1d2f-4631-8356-7844899f4108" d="M306.7,193.93c-.29.95,0,3.18.06,5.5s-.16,5.13.33,5.56H355c-.38-1,0-4.87,0-6.66a28.58,28.58,0,0,1-.12-4.45C352.29,193.88,313.33,192.67,306.7,193.93Z" transform="translate(-295.03 -106.49)"/><path class="b153f240-1d2f-4631-8356-7844899f4108" d="M306.76,194h47l51.72-2.66-53.2-1.93Z" transform="translate(-295.03 -106.49)"/><path class="b153f240-1d2f-4631-8356-7844899f4108" d="M361.46,203.92l-1.62-1.59-1.61,1.59s0-6.45-.47-6.93H361C361.74,197.43,361.46,203.92,361.46,203.92Z" transform="translate(-295.03 -106.49)"/><rect class="b153f240-1d2f-4631-8356-7844899f4108" x="17.69" y="87.5" width="1" height="11"/><rect class="b153f240-1d2f-4631-8356-7844899f4108" x="20.69" y="87.5" width="1" height="11"/><rect class="b153f240-1d2f-4631-8356-7844899f4108" x="51.69" y="87.5" width="1" height="11"/><rect class="b153f240-1d2f-4631-8356-7844899f4108" x="54.69" y="87.5" width="1" height="11"/><path class="f3359064-5190-4e22-8785-f0e4230d718f" d="M370.86,149c0,.74-1.56,1.34-3.5,1.34s-3.5-.59-3.5-1.34,1.56-1.34,3.5-1.34S370.86,148.3,370.86,149Z" transform="translate(-295.03 -106.49)"/><polygon class="f3359064-5190-4e22-8785-f0e4230d718f" points="66 82.5 95.03 82.5 95.67 81.94 76.36 42.5 46.43 42.5 66 82.5"/><polygon class="f3359064-5190-4e22-8785-f0e4230d718f" points="63.42 83.5 92.95 83.5 72.87 42.5 43.33 42.5 63.42 83.5"/><path class="f3359064-5190-4e22-8785-f0e4230d718f" d="M356.37,190.66c.58,0,25.8.3,28.56.26-4.92-9.33-15.66-33.71-17-41.93l-27.8.48C341.87,157.6,351.92,182.83,356.37,190.66Z" transform="translate(-295.03 -106.49)"/><path class="f3359064-5190-4e22-8785-f0e4230d718f" d="M383.25,191l1.68,0c-4.42-10.56-14.24-33.26-17-41.93l-.18,0C369.65,157.92,378.87,181.35,383.25,191Z" transform="translate(-295.03 -106.49)"/><path class="f3359064-5190-4e22-8785-f0e4230d718f" d="M338.81,147c-.25,0-.52,0-.79,0-2,0-3.62.38-3.62,2.42v.26s29.25.11,29.7,0c.61-2.07,1-2.31,4.38-2.65Z" transform="translate(-295.03 -106.49)"/><polygon class="f3359064-5190-4e22-8785-f0e4230d718f" points="93.1 83.74 94.84 82.2 75.42 42.5 72.89 42.5 93.1 83.74"/><polygon class="f3359064-5190-4e22-8785-f0e4230d718f" points="95.48 81.64 94.84 82.2 75.42 42.5 76.31 42.5 95.48 81.64"/><polygon class="f3359064-5190-4e22-8785-f0e4230d718f" points="53.8 85.94 53.97 86.47 73.17 43.81 72.89 42.8 53.8 85.94"/><polygon class="f3359064-5190-4e22-8785-f0e4230d718f" points="53.8 85.5 50.37 85.5 50.89 86.5 53.97 86.5 53.8 85.5"/><polygon class="f3359064-5190-4e22-8785-f0e4230d718f" points="53.82 85.5 50.4 85.54 69.79 42.5 72.86 42.5 53.82 85.5"/><polygon class="f3359064-5190-4e22-8785-f0e4230d718f" points="51.52 86.34 50.28 82.6 69.81 42.5 72.89 42.5 51.52 86.34"/><polygon class="f3359064-5190-4e22-8785-f0e4230d718f" points="49.67 82.21 50.32 82.7 69.96 42.5 69.06 42.5 49.67 82.21"/><polygon class="f3359064-5190-4e22-8785-f0e4230d718f" points="51.52 86.5 22 86.5 20.8 82.5 50.32 82.5 51.52 86.5"/><polygon class="f3359064-5190-4e22-8785-f0e4230d718f" points="49.67 82.5 19.96 82.5 20.62 82.5 50.32 82.5 49.67 82.5"/><polygon class="f3359064-5190-4e22-8785-f0e4230d718f" points="49.7 82.5 19.79 82.5 39.32 42.5 69.24 42.5 49.7 82.5"/><path class="f3359064-5190-4e22-8785-f0e4230d718f" d="M342.84,187H318.67l-.24-.39,16.83-34.46.24-.15h24.18l.24.39-16.84,34.46Zm-23.78-1h23.62l16.61-34H335.66Z" transform="translate(-295.03 -106.49)"/><path class="f3359064-5190-4e22-8785-f0e4230d718f" d="M367.72,147.86c1.46,0,2.64.25,2.73,1.13h.9c0-1.69-1.63-2.09-3.63-2.09s-3.63.38-3.63,3.09h.9C365.07,148.1,366.26,147.86,367.72,147.86Z" transform="translate(-295.03 -106.49)"/><path class="a9f38dde-3ccf-4076-90b2-90dfd3135152" d="M372.59,112.4a2.09,2.09,0,0,0-1.52-.77l-4.7-.19c0-1.66-.06-2.76-.06-3.45l-10.77,1H344.77c0-.49-.12.6-.11,2.27l-4.69.11a2.06,2.06,0,0,0-2,2.38,17.64,17.64,0,0,0,2.93,7.38,11.72,11.72,0,0,0,4,3.48,12.8,12.8,0,0,0,5.72,1.44,8.95,8.95,0,0,0,9.58.08,12.92,12.92,0,0,0,5.75-1.34,11.51,11.51,0,0,0,4-3.42,17.54,17.54,0,0,0,3.06-7.32A2.08,2.08,0,0,0,372.59,112.4Zm-32.67,1a.1.1,0,0,1,0-.08.11.11,0,0,1,.08,0l4.71-.12c.2,3.25,1,7.5,3.31,10.53C342,122.2,340.37,116.23,339.92,113.44Zm31.16.27c-.49,2.77-2.25,8.72-8.3,10.15,2.4-3,3.23-7.22,3.49-10.46l4.72.19a.08.08,0,0,1,.07,0A.09.09,0,0,1,371.08,113.71Z" transform="translate(-295.03 -106.49)"/><polygon class="b9ff7a1c-46d2-4640-be3e-a3d186ee9591" points="63.23 37.59 61.47 18.89 60.69 20.74 60.69 20.69 59.93 18.84 57.85 37.5 63.23 37.59"/><path class="ae6ad9b7-bc8f-4110-9770-f8ee87518208" d="M357.23,127.5a1.85,1.85,0,1,1-1.83-1.87A1.85,1.85,0,0,1,357.23,127.5Z" transform="translate(-295.03 -106.49)"/><path class="ae9a7058-613f-4f93-988e-2c937a2f8f39" d="M357.33,136h-4c-.38-.47-.68-.77-.58-1.15v-.15a.59.59,0,0,1,.59-.7h4c.37.07.67.37.38.74v.16C358,135.26,357.7,135.56,357.33,136Z" transform="translate(-295.03 -106.49)"/><path class="f9f91014-42ca-452e-8ce6-37863be86814" d="M358.37,146h-6.29c-.43-.38-.78-.73-.36-1.17v-.18c-.41-.43-.06-.78.38-.65h6.28c.44-.07.78.29,1.34.72v.18C359.16,145.32,358.8,145.67,358.37,146Z" transform="translate(-295.03 -106.49)"/><polygon class="a2c26600-a388-40b1-b711-9c9082cb5685" points="62.12 29.5 58.43 29.47 58.32 30.5 62.22 30.55 62.12 29.5"/><path class="adc3fc72-98dc-4189-b1a2-93d92b7ff54e" d="M351.34,145c0-.6,0-.53.38-.46v.4c-.42.38-.12.68.26,1.06h6.5a10.5,10.5,0,0,1,1.24-1v-.4c-.56-.07-.57-.15-.59.39Z" transform="translate(-295.03 -106.49)"/><rect class="efa63681-8c26-4b74-bca6-990a53ef5355" x="349.71" y="144.83" width="11.01" height="2.39" rx="1.19" transform="translate(-293.78 -109.5) rotate(0.49)"/><path class="fe6b855b-269b-4800-bb97-9774e95db2cf" d="M366.31,109l-3.92,0c0,.09,0,.19,0,.29-6,0-17.55.07-17.55.07l17.3,2.38c-.78,5.27-3.24,11.77-10.67,12.09a10.32,10.32,0,0,1-4.37-1.19,9.72,9.72,0,0,0,8.3,5.19C368,127.25,366.31,109,366.31,109Z" transform="translate(-295.03 -106.49)"/><path class="b7bbee07-c55b-41e4-af1c-ac291ed64458" d="M366.3,110l-22.18-.17a1.4,1.4,0,0,1-1.4-1.42h0a1.41,1.41,0,0,1,1.42-1.4l22.18.17a1.41,1.41,0,0,1,1.4,1.42h0A1.41,1.41,0,0,1,366.3,110Z" transform="translate(-295.03 -106.49)"/><path class="ad97671a-9d3c-4202-93ef-fa9eaea9b48c" d="M346.77,111.91s-1.34,13.53,9.39,13.77C356.16,125.68,348.48,122.72,346.77,111.91Z" transform="translate(-295.03 -106.49)"/><polygon class="b93758d2-a2f3-4506-8ad5-aa38ea5e27fb" points="60.64 6.35 62.22 9.63 65.82 10.18 63.19 12.7 63.78 16.29 60.57 14.56 57.34 16.23 57.98 12.65 55.4 10.09 59 9.6 60.64 6.35"/><polygon class="a871d8f1-54c6-47c0-8e02-be2ccb3e2bb2" points="60.31 5.83 61.9 9.11 65.49 9.66 62.86 12.18 63.45 15.77 60.24 14.05 57.01 15.71 57.66 12.13 55.07 9.57 58.68 9.08 60.31 5.83"/></svg>