<svg xmlns="http://www.w3.org/2000/svg" width="103" height="17" viewBox="0 0 103 17">
            <g fill="#08A652">
                <path
                    d="M16.216 4.157c.613 1.188.937 2.561.937 4.009 0 4.9-3.856 8.834-8.577 8.834C3.82 17 0 13.028 0 8.166c0-.186 0-.408.036-.594l5.19 3.08zm-1.009-1.633l.54.78L5.262 9.538.181 6.533c.035-.334.107-.631.215-.965l4.83 2.858zm-1.441-1.41c.252.222.504.408.756.668L5.19 7.312.685 4.64c.144-.297.288-.594.432-.854l4.108 2.413zM11.892 0c.36.148.684.334 1.009.52L5.189 5.085 1.622 2.97c.216-.26.396-.52.612-.742l2.991 1.745zM31.224 3c.212 0 .467.044.722.044.297.045.552.045.85.09.297.044.551.088.806.177.255.088.467.177.68.266v2.175h-.68c-.127-.666-.382-1.198-.807-1.51-.424-.31-.934-.487-1.529-.487-.637 0-1.146.177-1.529.443-.382.311-.637.666-.849 1.11-.212.444-.34.932-.382 1.51-.043.576-.085 1.153-.085 1.686 0 .71.042 1.332.127 1.953.085.577.255 1.11.467 1.554.255.399.553.754.977 1.02.383.267.935.4 1.572.4.34 0 .637 0 .892-.044.254 0 .467-.09.68-.134.211-.088.381-.133.551-.222l.51-.266.297.666c-.17.089-.382.177-.594.31-.255.09-.51.223-.807.311-.298.133-.595.222-.977.267-.34.044-.765.088-1.19.088-.891 0-1.613-.133-2.25-.4-.637-.265-1.147-.62-1.572-1.109-.382-.444-.68-1.02-.807-1.775-.212-.666-.297-1.465-.297-2.308 0-.888.085-1.731.297-2.442.213-.71.51-1.331.935-1.82.424-.488.976-.887 1.614-1.154.68-.266 1.444-.399 2.378-.399zm70.927.266c-.298.222-.595.489-.977.844s-.722.754-1.105 1.198c-.382.4-.722.843-1.061 1.287-.34.444-.637.8-.892 1.154l-.17.222c.212.355.467.755.68 1.066.212.31.467.665.721.976.255.31.51.622.807.977.255.31.553.665.892 1.065.213.222.51.577.85.976.382.4.722.8 1.104 1.199l-3.568-.045c-.127-.266-.254-.577-.424-.843-.17-.31-.34-.577-.552-.888-.213-.266-.383-.532-.553-.799-.17-.266-.382-.532-.552-.799-.212-.266-.382-.532-.594-.843l-.637-.932c.127-.222.297-.444.51-.755.212-.266.424-.621.679-.976.255-.355.467-.71.722-1.11.212-.4.467-.799.68-1.154.254-.355.424-.71.594-1.02.17-.311.297-.578.382-.8zm-24.379-.044c.043.133.043.31.085.533.043.222.085.488.212.799l2.421 7.19c.213.666.425 1.199.595 1.554.17.355.297.666.425.887h-2.676c0-.221-.085-.532-.212-.976-.085-.444-.255-.977-.468-1.598l-.467-1.42h-3.355c-.34 1.11-.595 1.997-.722 2.618-.127.622-.212 1.066-.255 1.376h-1.911c.085-.177.17-.355.297-.577.128-.221.255-.532.425-.887.127-.355.34-.844.552-1.376.213-.533.51-1.243.807-2.042l1.699-4.35c.085-.178.127-.444.127-.71V4.02c-.042-.133-.085-.222-.127-.266-.043-.045-.127-.09-.255-.134-.127 0-.17-.044-.212-.044v-.355zm-7.008-.044v2.44h-.552c-.085-.399-.212-.71-.297-.931-.085-.222-.212-.4-.382-.533-.128-.133-.34-.177-.595-.222-.255-.044-.594-.044-.977-.044H66.55c-.26.002-.432.012-.541.089-.128.088-.17.266-.17.532v2.619h.892c.85 0 1.571.044 2.166.178.594.133 1.062.31 1.444.577.382.31.637.621.807 1.065.17.444.255.932.255 1.553 0 .844-.128 1.51-.383 1.998-.212.488-.552.843-.977 1.11-.382.221-.891.399-1.401.443-.552.09-1.104.09-1.741.09h-3.95v-.356c.042 0 .085 0 .212-.044.128 0 .213-.09.255-.134.085-.044.127-.133.127-.266.043-.089.043-.266.043-.444V4.42c0-.177-.043-.31-.043-.443-.042-.134-.085-.222-.127-.267-.042-.044-.127-.089-.255-.133-.127 0-.17-.044-.212-.044v-.355h7.814zm-27.52 0v2.44h-.553c-.085-.399-.212-.71-.297-.931-.085-.222-.213-.4-.382-.533-.128-.133-.34-.177-.595-.222-.255-.044-.595-.044-.977-.044h-1.412c-.26.002-.432.012-.542.089-.127.088-.17.266-.17.532v2.619h.892c.85 0 1.572.044 2.167.178.594.133 1.061.31 1.444.577.382.31.637.621.806 1.065.17.444.255.932.255 1.553 0 .844-.127 1.51-.382 1.998s-.595.843-1.02 1.11c-.381.221-.891.399-1.4.443-.553.09-1.063.09-1.7.09h-3.95v-.4c.043 0 .086 0 .213-.045.127 0 .212-.089.255-.133.085-.044.127-.133.127-.266.043-.133.043-.267.043-.444V4.42c0-.177-.043-.31-.043-.443-.042-.134-.085-.222-.127-.267-.043-.044-.128-.089-.255-.133-.127 0-.17-.044-.212-.044v-.355h7.814zm42.3 0v.355c-.042 0-.085 0-.212.044s-.212.089-.255.133c-.085.045-.127.133-.127.267-.043.088-.043.266-.043.443v3.507h4.078V4.42c0-.177-.043-.31-.043-.443-.042-.134-.085-.222-.127-.267-.043-.044-.128-.089-.255-.133-.128 0-.17-.044-.213-.044v-.355h3.356v.31c-.043 0-.085 0-.213.045-.127.044-.212.088-.254.133-.085.044-.128.133-.128.266-.042.089-.042.266-.042.444v8.478c0 .177.042.31.042.444.043.133.085.222.128.266.042.044.127.089.254.133.128 0 .17.045.213.045v.355h-3.44v-.355c.042 0 .084 0 .212-.045.127 0 .212-.089.255-.133.085-.044.127-.133.127-.266.043-.089.043-.267.043-.444V8.682h-4.078v4.216c0 .178.043.311.043.444.042.133.085.222.127.266.043.045.128.09.255.134.128 0 .17.044.212.044h.085v.355h-3.44v-.355c.043 0 .085 0 .213-.044.127 0 .212-.09.254-.134.085-.044.128-.133.128-.266.042-.133.042-.266.042-.444V4.42c0-.177-.042-.31-.042-.443-.043-.134-.085-.222-.128-.267-.042-.044-.127-.089-.254-.133-.128 0-.17-.044-.213-.044v-.355h3.44zm-27.35 0c.509 0 .976.044 1.443.088.467.045.892.178 1.232.4.34.222.637.577.85.976.169.4.296.977.296 1.687 0 .755-.127 1.376-.34 1.82-.212.488-.509.799-.891 1.065-.382.222-.807.4-1.317.488-.51.09-1.02.134-1.571.134h-1.062v3.062c0 .178.042.311.042.444.043.133.085.222.128.266.042.045.127.09.255.134.127 0 .17.044.212.044v.31h-3.44v-.354c.042 0 .085 0 .212-.045.128 0 .213-.089.255-.133.085-.044.127-.133.127-.266.043-.089.043-.267.043-.444V4.42c0-.177-.043-.31-.043-.443-.042-.134-.084-.222-.127-.267-.042-.044-.127-.089-.255-.133-.127 0-.17-.044-.212-.044v-.355zm-5.82 0V5.53h-.552c-.085-.4-.212-.71-.297-.932-.085-.222-.212-.4-.382-.533-.128-.133-.34-.177-.595-.222-.255-.044-.594-.044-.977-.044h-1.146c-.213 0-.34 0-.425.089-.042.089-.085.266-.085.488v3.64h1.826c.17 0 .34 0 .51-.045.17 0 .34-.044.51-.088.17-.045.297-.09.424-.178v1.42c-.127-.088-.254-.133-.424-.177-.17-.045-.34-.089-.51-.089-.17 0-.34-.044-.51-.044h-1.826v3.612c.002.187.009.33.043.471 0 .133.084.267.212.355.127.09.297.134.552.178.212.044.552.044.977.044h.192c.37 0 .651-.006.87-.044.254 0 .467-.089.594-.222.17-.133.255-.31.34-.577.085-.266.17-.577.255-1.021h.68v2.486h-7.56v-.355c.042 0 .084 0 .212-.045.127 0 .212-.089.255-.133.085-.044.127-.133.127-.266.043-.089.043-.267.043-.444V4.42c0-.177-.043-.31-.043-.443-.042-.134-.085-.222-.127-.267-.043-.044-.128-.089-.255-.133-.128 0-.17-.044-.213-.044v-.355h7.306zm44.085 0v.399c-.042 0-.084 0-.212.044-.127.045-.212.09-.255.134-.085.044-.127.133-.127.266-.043.089-.043.266-.043.444v8.433c0 .178.043.311.043.444.042.133.085.222.127.266.043.045.128.09.255.134.128 0 .17.044.212.044v.31h-3.44v-.354c.043 0 .085 0 .213-.045.127 0 .212-.089.254-.133.085-.044.128-.133.128-.266.042-.089.042-.267.042-.444V4.42c0-.177-.042-.31-.042-.443-.043-.134-.085-.222-.128-.267-.042-.044-.127-.089-.254-.133-.128 0-.17-.044-.213-.044v-.355h3.44zM66.772 7.794h-.892v4.616c0 .222.043.4.043.533s.042.222.127.31c.085.09.213.134.34.178.127.044.34.044.595.089.254 0 .51-.045.764-.09.212-.088.425-.221.637-.399.212-.222.34-.488.467-.887.128-.4.17-.888.17-1.554 0-.976-.17-1.687-.51-2.13-.34-.444-.934-.666-1.74-.666zm-27.564 0h-.891v4.616c0 .222.042.4.042.533s.043.222.127.31c.085.09.213.134.34.178.17.044.34.044.595.089.255 0 .51-.045.764-.09.213-.088.425-.221.637-.399.213-.222.34-.488.468-.887.127-.4.17-.888.17-1.554 0-.976-.17-1.687-.51-2.13-.34-.444-.935-.666-1.742-.666zm36.823-2.797l-1.487 4.44h2.888l-1.401-4.44zM57.726 3.843c-.212 0-.34.045-.467.045-.128 0-.213.044-.255.089-.043.044-.085.088-.085.177-.043.089-.043.178-.043.266v4.705h1.062c.637 0 1.104-.266 1.36-.754.254-.488.382-1.199.382-2.13 0-.445-.043-.844-.128-1.155-.127-.31-.255-.577-.425-.754-.212-.178-.382-.311-.637-.4-.254-.044-.51-.089-.764-.089z">
                </path>
            </g>
</svg>